<svg xmlns="http://www.w3.org/2000/svg" width="1380" height="760"><g fill="none" fill-rule="evenodd"><path fill="#ECECEC" d="M660 99h120v182H660z"/><path fill="#D7D8DC" d="M760 140v21h-80v-61h20v40h40v-40h20v20h80v20h-80zm40 110v-10H640v40h20v-20h120v20h20v-30z"/><path fill="#ECECEC" d="M659 19h122v62H659z"/><path fill="#D7D8DC" d="M800 10V0H640v100h160V10zm-20 10H660v60h120V20z"/><path fill="#4F4F51" d="M680 40h40v20h-40z"/><path fill="#8DA3FF" d="M740 40h20v20h-20z"/><path fill="#F3F3F3" d="M580 260v20h60v-60h-60v20h-20v20h20z"/><path fill="#303945" fill-opacity=".8" d="M460 720h20v20h-20zm400 0h20v20h-20zm40 0h20v20h-20zm-400 0h340v20H500z"/><path fill="#515151" d="M560 698h80v22h-80zm160 0h80v22h-80z"/><path fill="#D29047" d="M540 338h280v344H540"/><path fill="#B87A36" d="M540 318h280v22H540zm0 362h280v20H540zm0-180h280v20H540z"/><path fill="#FFF" d="M520 280h320v40H520z"/><path fill="#FFF" fill-opacity=".2" d="M560 160h40v20h-40v-20zm0-40h20v20h-20v-20zm-20 20h20v20h-20v-20z"/><path fill="#414141" d="M758 200h22v20h-22z"/><path fill="#684326" d="M680 179h80v61h-80z"/><path fill="#414141" d="M680 160h80v20h-80z"/><path fill="#ECECEC" d="M1120 99h120v182h-120z"/><path fill="#D7D8DC" d="M1220 140v21h-80v-61h20v40h40v-40h20v20h80v20h-80zm40 110v-10h-160v40h20v-20h120v20h20v-30z"/><path fill="#ECECEC" d="M1119 19h122v62h-122z"/><path fill="#D7D8DC" d="M1260 10V0h-160v100h160V10zm-20 10h-120v60h120V20z"/><path fill="#4F4F51" d="M1140 40h40v20h-40z"/><path fill="#8DA3FF" d="M1200 40h20v20h-20z"/><path fill="#F3F3F3" d="M1040 260v20h60v-60h-60v20h-20v20h20z"/><path fill="#303945" fill-opacity=".8" d="M920 720h20v20h-20zm400 0h20v20h-20zm40 0h20v20h-20zm-400 0h340v20H960z"/><path fill="#515151" d="M1020 698h80v22h-80zm160 0h80v22h-80z"/><path fill="#D29047" d="M1000 338h280v344h-280"/><path fill="#B87A36" d="M1000 318h280v22h-280zm0 362h280v20h-280zm0-180h280v20h-280z"/><path fill="#FFF" d="M980 280h320v40H980z"/><path fill="#FFF" fill-opacity=".2" d="M1000 140h20v20h-20v-20zm60 40h20v20h-20v-20zm0-80h20v20h-20v-20zm-40 20h40v20h-40v-20z"/><path fill="#414141" d="M1218 200h22v20h-22z"/><path fill="#684326" d="M1140 179h80v61h-80z"/><path fill="#414141" d="M1140 160h80v20h-80z"/><path fill="#FFF" fill-opacity=".2" d="M100 160h40v20h-40v-20zm40 20h20v20h-20v-20zm-20-60h20v20h-20v-20zm20-20h20v20h-20v-20z"/><path fill="#ECECEC" d="M198 18h124v64h-2v176h2v24H198v-23.8h2.2L200 207V82h-2"/><path fill="#D7D8DC" d="M300 140v21h-80v-61h20v40h40v-40h20v20h80v20h-80zm40 110v-10H180v40h20v-20h120v20h20v-30zm0-240V0H180v100h160V10zm-20 10H200v60h120V20z"/><path fill="#4F4F51" d="M220 40h40v20h-40z"/><path fill="#8DA3FF" d="M280 40h20v20h-20z"/><path fill="#414141" d="M298 200h22v20h-22z"/><path fill="#684326" d="M220 179h80v61h-80z"/><path fill="#414141" d="M220 160h80v20h-80z"/><path fill="#515151" d="M100 698h80v22h-80zm160 0h80v22h-80z"/><path fill="#D29047" d="M80 338h280v344H80"/><path fill="#B87A36" d="M80 318h280v22H80zm0 362h280v20H80zm0-180h280v20H80z"/><path fill="#FFF" d="M60 280h320v40H60z"/><path fill="#F3F3F3" d="M120 260v20h60v-60h-60v20h-20v20h20z"/><path fill="#303945" fill-opacity=".8" d="M0 720h20v20H0zm400 0h20v20h-20zm40 0h20v20h-20zm-400 0h340v20H40z"/></g></svg>