<svg xmlns="http://www.w3.org/2000/svg" width="6160" height="1000"><g fill="none" fill-rule="evenodd"><path fill="#303945" fill-opacity=".8" d="M40 960h500v20H40v-20zm-40 0h20v20H0v-20z"/><path fill="#D7D8DC" d="M500 0H60v960h20V20h400v940h20"/><path fill="#D29047" d="M98 38h364v922H98z"/><path fill="#B87A36" d="M78 960V18h404v942h-22V40H100v920"/><path fill="#D3D3D3" d="M120 480h40v40h-2v40h2v40h-40v-40h2v-40h-2"/><path fill="#F4F4F4" d="M120 520h40v40h-40z"/><path fill="#2C3137" d="M1042 960H638V18h404"/><path fill="#D29047" d="M1021 960H739V319h20v-20h20v-20h20v-20h20v-20h20v-20h20v-20h20v-20h20v-20h20v-20h20v-20h20V99h20V79h20V59h22"/><path fill="#A77033" d="M1021 39v21h-21v20h-20v20h-20v20h-20v20h-20v20h-20v20h-20v20h-20v20h-20v20h-20v20h-20v20h-20v20h-20v20h-21V79h60V59h40V41h1v-1h1v-1"/><path fill="#B87A36" d="M720 339h20v621h-20zm300-300h21v921h-21z"/><path fill="#9C672C" d="M740 80h60V60h60V40h181V20H840v20h-60v20h-60v280h20"/><path fill="#D3D3D3" d="M760 480h40v40h-2v40h2v40h-40v-40h2v-40h-2"/><path fill="#F4F4F4" d="M760 520h40v40h-40z"/><path fill="#303945" fill-opacity=".8" d="M600 960h500v20H600v-20zm-40 0h20v20h-20v-20z"/><path fill="#D7D8DC" d="M1060 0H620v960h20V20h400v940h20"/><path fill="#495491" d="M640 560h20v200h-20V560zm0 380h20v20h-20v-20z"/><path fill="#DFA8A8" d="M640 240h20v320h-20V240zm20 20h20v100h-20V260zm20 40h20v140h-20V300zm20 140h20v60h-20v-60z"/><path fill="#F5C3C3" d="M660 260h20v100h-20z"/><path fill="#FFE8E8" fill-opacity=".3" d="M640 280h40v20h-40v-20zm0 60h60v20h-60v-20zm40 60h20v20h-20v-20zm-40 0h20v20h-20v-20zm0 60h20v20h-20v-20zm60 0h20v20h-20v-20zm-60 60h20v20h-20v-20z"/><path fill="#472B1F" d="M640 60h20v160h-20z"/><path fill="#E2B79C" d="M640 80h20v40h-20z"/><path fill="#F7CC96" d="M640 100h20v80h-20z"/><path fill="#FFF" d="M640 120h20v20h-20z"/><path fill="#2C3137" d="M1602 960h-404V18h404"/><path fill="#D29047" d="M1439 960h142V199h-22v40h-20v40h-20v40h-20v40h-20v40h-20v40h-20"/><path fill="#A77033" d="M1439 440h21v-40h20v-40h20v-40h20v-40h20v-40h20v-40h21V39h-40l-1 1-1 1v18h-38l-1 1-1 1v18h-38l-1 1-1 1v18h-20"/><path fill="#B87A36" d="M1420 479h20v481h-20zm160-320h20v801h-20z"/><path fill="#9C672C" d="M1420 80h80V40h80v120h20l1-141h-61v41h-80v40h-20v380h-20"/><path fill="#D3D3D3" d="M1440 500h20v40h-1v40h1v40h-20"/><path fill="#F4F4F4" d="M1420 540h40v40h-40z"/><path fill="#303945" fill-opacity=".8" d="M1160 960h500v20h-500v-20zm-40 0h20v20h-20v-20z"/><path fill="#D7D8DC" d="M1620 0h-440v960h20V20h400v940h20"/><path fill="#58629C" d="M1240 780h20v180h20V600h40v260h20V760h20V520h-140v80h20v180zm60 80h20v40h-20v-40zm-20 40h20v40h-20v-40z"/><path fill="#472B1F" d="M1260 960h20v20h-20z"/><path fill="#495491" d="M1360 520h-140v80h20v160h20V600h40v-20h60v-60zm-40 240h20v40h-20v-40zm-60 20h20v40h-20v-40zm20 120h20v40h-20v-40zm-20 40h20v20h-20v-20zm60-340h20v140h-20V600z"/><path fill="#DFA8A8" d="M1220 240v320h20v-20h40v-20h20v20h40v20h20V240h-20v-20h-100v20"/><path fill="#F5C3C3" d="M1320 259h20v281h-20V259zm-80 0h20v281h-20V259z"/><path fill="#FFE8E8" fill-opacity=".3" d="M1220 280h140v20h-140v-20zm0 60h140v20h-140v-20zm0 60h140v20h-140v-20zm0 60h140v20h-140v-20zm0 60h60v20h-60v-20zm80 0h60v20h-60v-20z"/><path fill="#B47878" d="M1280 280v-20h-40v-20h20v40h60v-40h20v20h-40v260h-20"/><path fill="#DFA8A8" d="M1200 260h20v100h-20V260zm160 0h20v100h-20V260zm20 40h20v200h-20V300zm20 200h20v40h-20v-40z"/><path fill="#F4C3C3" d="M1200 260h20v100h-20V260zm160 0h20v100h-20V260z"/><path fill="#FFE8E8" fill-opacity=".3" d="M1200 280h20v20h-20v-20zm160 0h20v20h-20v-20zm0 60h40v20h-40v-20zm-160 0h20v20h-20v-20zm180 60h20v20h-20v-20zm0 60h20v20h-20v-20zm20 60h20v20h-20v-20z"/><path fill="#F7CC96" d="M1298 98h62v84h-62z"/><path fill="#C68A74" d="M1260 199v41h20v40h20v-40h20v-21h-39v-20"/><path fill="#E2B79C" d="M1278 98h42v24h-42V98zm60-18h22v20h-22V80zm-18 58h20v22h-20v-22zm-42 2h22v42h-22v-42z"/><path fill="#472A1E" d="M1280 180h80v40h-80v-20h-20v-42h20v22m0-100V60h80v20h-20v20h-62V80"/><path fill="#5D4439" d="M1260 80h20v42h-20z"/><path fill="#212121" d="M1260 120h42v20h-42zm58 0h24v20h-24z"/><path fill="#FFF" d="M1340 120h20v20h-20zm-40 0h20v20h-20z"/><path fill="#C68A74" d="M1260 140h20v20h-20z"/><path fill="#2C3137" d="M2162 960h-404V18h404"/><path fill="#A77033" d="M2099 59h-38l-1 1v900h81V39h-40l-1 1-1 1"/><path fill="#D3D3D3" d="M2060 500h20v40h-1v40h1v40h-20"/><path fill="#F4F4F4" d="M2040 540h40v40h-40z"/><path fill="#9C672C" d="M2161 960V19h-61v41h-40V40h80v920"/><path fill="#303945" fill-opacity=".8" d="M1720 960h500v20h-500v-20zm-40 0h20v20h-20v-20z"/><path fill="#D7D8DC" d="M2180 0h-440v960h20V20h400v940h20"/><path fill="#58629C" d="M1800 780h20v180h20V600h40v260h20V760h20V520h-140v80h20v180zm60 80h20v40h-20v-40zm-20 40h20v40h-20v-40z"/><path fill="#472B1F" d="M1820 960h20v20h-20z"/><path fill="#495491" d="M1920 520h-140v80h20v160h20V600h40v-20h60v-60zm-40 240h20v40h-20v-40zm-60 20h20v40h-20v-40zm20 120h20v40h-20v-40zm-20 40h20v20h-20v-20zm60-340h20v140h-20V600z"/><path fill="#DFA8A8" d="M1780 240v320h20v-20h40v-20h20v20h40v20h20V240h-20v-20h-100v20"/><path fill="#F5C3C3" d="M1880 259h20v281h-20V259zm-80 0h20v281h-20V259z"/><path fill="#FFE8E8" fill-opacity=".3" d="M1780 280h140v20h-140v-20zm0 60h140v20h-140v-20zm0 60h140v20h-140v-20zm0 60h140v20h-140v-20zm0 60h60v20h-60v-20zm80 0h60v20h-60v-20z"/><path fill="#B47878" d="M1840 280v-20h-40v-20h20v40h60v-40h20v20h-40v260h-20"/><path fill="#DFA8A8" d="M1760 260h20v100h-20V260zm160 0h20v100h-20V260zm20 40h20v200h-20V300zm20 200h20v40h-20v-40zm20 40h20v40h-20v-40z"/><path fill="#F4C3C3" d="M1760 260h20v100h-20V260zm160 0h20v100h-20V260z"/><path fill="#FFE8E8" fill-opacity=".3" d="M1760 280h20v20h-20v-20zm160 0h20v20h-20v-20zm0 60h40v20h-40v-20zm-160 0h20v20h-20v-20zm180 60h20v20h-20v-20zm0 60h20v20h-20v-20zm20 60h20v20h-20v-20z"/><path fill="#F7CC96" d="M1980 580h20v20h-20z"/><path fill="#B47878" d="M1980 560h20v20h-20z"/><path fill="#F7CC96" d="M1858 98h62v84h-62z"/><path fill="#C68A74" d="M1820 199v41h20v40h20v-40h20v-21h-39v-20"/><path fill="#E2B79C" d="M1838 98h42v24h-42V98zm60-18h22v20h-22V80zm-18 58h20v22h-20v-22zm-42 2h22v42h-22v-42z"/><path fill="#472A1E" d="M1840 180h80v40h-80v-20h-20v-42h20v22m0-100V60h80v20h-20v20h-62V80"/><path fill="#5D4439" d="M1820 80h20v42h-20z"/><path fill="#212121" d="M1820 120h42v20h-42zm58 0h24v20h-24z"/><path fill="#FFF" d="M1900 120h20v20h-20zm-40 0h20v20h-20z"/><path fill="#C68A74" d="M1820 140h20v20h-20z"/><path fill="#2C3137" d="M2722 960h-404V18h404"/><path fill="#A77033" d="M2659 59h-38l-1 1v900h81V39h-40l-1 1-1 1"/><path fill="#D3D3D3" d="M2620 500h20v40h-1v40h1v40h-20"/><path fill="#F4F4F4" d="M2620 540h20v40h-20z"/><path fill="#9C672C" d="M2721 960V19h-61v41h-40V40h80v920"/><path fill="#303945" fill-opacity=".8" d="M2280 960h500v20h-500v-20zm-40 0h20v20h-20v-20z"/><path fill="#D7D8DC" d="M2740 0h-440v960h20V20h400v940h20"/><path fill="#58629C" d="M2460 580v180h-20v40h-40v-40h23.5-3.5V580h-20v-80h140v240h-40V580h-40zm80 160h20v180h-20V740zm-160 60h20v160h-20V800z"/><path fill="#472B1F" d="M2540 920h40v20h-40zm-160 40h20v20h-20z"/><path fill="#495491" d="M2540 500h-140v80h20v160h20V580h40v-20h60v-60zm0 240h20v40h-20v-40zm-120 20h20v40h-40v20h-20v-20h20v-20h20v-20zm120 140h20v20h-20v-20zm-160 40h20v20h-20v-20zm120-360h20v140h-20V580z"/><path fill="#DFA8A8" d="M2580 300h-21v60h1v240h20"/><path fill="#F7CC96" d="M2560 600h20v20h-20z"/><path fill="#B47878" d="M2560 580h20v20h-20z"/><path fill="#F5C3C3" d="M2539 260h21v100h-21z"/><path fill="#FFE8E8" fill-opacity=".3" d="M2540 280h20v20h-20v-20zm0 60h40v20h-40v-20zm20 60h20v20h-20v-20zm0 60h20v20h-20v-20zm0 60h20v20h-20v-20z"/><path fill="#DFA8A8" d="M2360 300h21v60h-1v240h-20"/><path fill="#F7CC96" d="M2380 600h-20v20h20z"/><path fill="#B47878" d="M2380 580h-20v20h20z"/><path fill="#F5C3C3" d="M2401 260h-21v100h21z"/><path fill="#FFE8E8" fill-opacity=".3" d="M2400 280h-20v20h20v-20zm0 60h-40v20h40v-20zm-20 60h-20v20h20v-20zm0 60h-20v20h20v-20zm0 60h-20v20h20v-20z"/><path fill="#DFA8A8" d="M2400 240v320h20v-20h40v-20h20v20h40v20h20V240h-20v-20h-100v20"/><path fill="#F5C3C3" d="M2500 259h20v281h-20V259zm-80 0h20v281h-20V259z"/><path fill="#FFE8E8" fill-opacity=".3" d="M2400 280h140v20h-140v-20zm0 60h140v20h-140v-20zm0 60h140v20h-140v-20zm0 60h140v20h-140v-20zm0 60h60v20h-60v-20zm80 0h60v20h-60v-20z"/><path fill="#B47878" d="M2460 280v-20h-40v-20h20v40h60v-40h20v20h-40v260h-20"/><path fill="#F7CC96" d="M2478 98h62v84h-62z"/><path fill="#C68A74" d="M2440 199v41h20v40h20v-40h20v-21h-39v-20"/><path fill="#E2B79C" d="M2458 98h42v24h-42V98zm60-18h22v20h-22V80zm-18 58h20v22h-20v-22zm-42 2h22v42h-22v-42z"/><path fill="#472A1E" d="M2460 180h80v40h-80v-20h-20v-42h20v22m0-100V60h80v20h-20v20h-62V80"/><path fill="#5D4439" d="M2440 80h20v42h-20z"/><path fill="#212121" d="M2440 120h42v20h-42zm58 0h24v20h-24z"/><path fill="#FFF" d="M2520 120h20v20h-20zm-40 0h20v20h-20z"/><path fill="#C68A74" d="M2440 140h20v20h-20z"/><path fill="#2C3137" d="M3282 960h-404V18h404"/><path fill="#A77033" d="M3219 59h-38l-1 1v900h81V39h-40l-1 1-1 1"/><path fill="#D3D3D3" d="M3180 500h20v40h-1v40h1v40h-20"/><path fill="#F4F4F4" d="M3180 540h20v40h-20z"/><path fill="#9C672C" d="M3281 960V19h-61v41h-40V40h80v920"/><path fill="#303945" fill-opacity=".8" d="M2840 960h500v20h-500v-20zm-40 0h20v20h-20v-20z"/><path fill="#D7D8DC" d="M3300 0h-440v960h20V20h400v940h20"/><path fill="#58629C" d="M3140 520v240h-20v200h-20V580h-60v120h-20v40h-40v20h-20v-40h20v-20h20V520h140zm-200 240h20v120h-20V760zm180 180h20v20h-20v-20z"/><path fill="#472B1F" d="M3100 960h40v20h-40zm-160-80h20v40h-20z"/><path fill="#495491" d="M3140 500h-140v180h20V580h60v-20h60v-60zm-40 260h20v40h-20v-40zm-120-60h40v20h-20v20h-20v20h-20v-40h20v-20zm120 240h40v20h-40v-20zm-160-80h20v20h-20v-20zm0-100h20v20h-20v-20zm160-180h20v160h-20V580z"/><path fill="#DFA8A8" d="M3180 300h-21v60h1v240h20"/><path fill="#F7CC96" d="M3160 600h20v20h-20z"/><path fill="#B47878" d="M3160 580h20v20h-20z"/><path fill="#F5C3C3" d="M3139 260h21v100h-21z"/><path fill="#FFE8E8" fill-opacity=".3" d="M3140 280h20v20h-20v-20zm0 60h40v20h-40v-20zm20 60h20v20h-20v-20zm0 60h20v20h-20v-20zm0 60h20v20h-20v-20z"/><path fill="#DFA8A8" d="M2960 300h21v60h-1v240h-20"/><path fill="#F7CC96" d="M2980 600h-20v20h20z"/><path fill="#B47878" d="M2980 580h-20v20h20z"/><path fill="#F5C3C3" d="M3001 260h-21v100h21z"/><path fill="#FFE8E8" fill-opacity=".3" d="M3000 280h-20v20h20v-20zm0 60h-40v20h40v-20zm-20 60h-20v20h20v-20zm0 60h-20v20h20v-20zm0 60h-20v20h20v-20z"/><path fill="#DFA8A8" d="M3000 240v320h20v-20h40v-20h20v20h40v20h20V240h-20v-20h-100v20"/><path fill="#F5C3C3" d="M3100 259h20v281h-20V259zm-80 0h20v281h-20V259z"/><path fill="#FFE8E8" fill-opacity=".3" d="M3000 280h140v20h-140v-20zm0 60h140v20h-140v-20zm0 60h140v20h-140v-20zm0 60h140v20h-140v-20zm0 60h60v20h-60v-20zm80 0h60v20h-60v-20z"/><path fill="#B47878" d="M3060 280v-20h-40v-20h20v40h60v-40h20v20h-40v260h-20"/><path fill="#F7CC96" d="M3078 98h62v84h-62z"/><path fill="#C68A74" d="M3040 199v41h20v40h20v-40h20v-21h-39v-20"/><path fill="#E2B79C" d="M3058 98h42v24h-42V98zm60-18h22v20h-22V80zm-18 58h20v22h-20v-22zm-42 2h22v42h-22v-42z"/><path fill="#472A1E" d="M3060 180h80v40h-80v-20h-20v-42h20v22m0-100V60h80v20h-20v20h-62V80"/><path fill="#5D4439" d="M3040 80h20v42h-20z"/><path fill="#212121" d="M3040 120h42v20h-42zm58 0h24v20h-24z"/><path fill="#FFF" d="M3120 120h20v20h-20zm-40 0h20v20h-20z"/><path fill="#C68A74" d="M3040 140h20v20h-20z"/><path fill="#2C3137" d="M3842 960h-404V18h404"/><path fill="#A77033" d="M3779 59h-38l-1 1v900h81V39h-40l-1 1-1 1"/><path fill="#D3D3D3" d="M3740 500h20v40h-1v40h1v40h-20"/><path fill="#F4F4F4" d="M3740 540h20v40h-20z"/><path fill="#9C672C" d="M3841 960V19h-61v41h-40V40h80v920"/><path fill="#303945" fill-opacity=".8" d="M3400 960h500v20h-500v-20zm-40 0h20v20h-20v-20z"/><path fill="#D7D8DC" d="M3860 0h-440v960h20V20h400v940h20"/><path fill="#58629C" d="M3560 840h-20v20h20v-20h20v-80h20V580h60v380h40v-20h-20V740h20V500h-140v80"/><path fill="#472B1F" d="M3660 960h40v20h-40zm-160-80h20v40h-20z"/><path fill="#495491" d="M3700 500h-140v240h20V580h60v-20h60v-60zm-40 240h20v40h-20v-40zm-100 20h20v40h-20v-40zm100 180h40v20h-40v-20zm-140-80h20v20h-20v-20zm140-280h20v140h-20V580z"/><path fill="#DFA8A8" d="M3740 300h-21v60h1v240h20"/><path fill="#F7CC96" d="M3720 600h20v20h-20z"/><path fill="#B47878" d="M3720 580h20v20h-20z"/><path fill="#F5C3C3" d="M3699 260h21v100h-21z"/><path fill="#FFE8E8" fill-opacity=".3" d="M3700 280h20v20h-20v-20zm0 60h40v20h-40v-20zm20 60h20v20h-20v-20zm0 60h20v20h-20v-20zm0 60h20v20h-20v-20z"/><path fill="#DFA8A8" d="M3520 300h21v60h-1v240h-20"/><path fill="#F7CC96" d="M3540 600h-20v20h20z"/><path fill="#B47878" d="M3540 580h-20v20h20z"/><path fill="#F5C3C3" d="M3561 260h-21v100h21z"/><path fill="#FFE8E8" fill-opacity=".3" d="M3560 280h-20v20h20v-20zm0 60h-40v20h40v-20zm-20 60h-20v20h20v-20zm0 60h-20v20h20v-20zm0 60h-20v20h20v-20z"/><path fill="#DFA8A8" d="M3560 240v320h20v-20h40v-20h20v20h40v20h20V240h-20v-20h-100v20"/><path fill="#F5C3C3" d="M3660 259h20v281h-20V259zm-80 0h20v281h-20V259z"/><path fill="#FFE8E8" fill-opacity=".3" d="M3560 280h140v20h-140v-20zm0 60h140v20h-140v-20zm0 60h140v20h-140v-20zm0 60h140v20h-140v-20zm0 60h60v20h-60v-20zm80 0h60v20h-60v-20z"/><path fill="#B47878" d="M3620 280v-20h-40v-20h20v40h60v-40h20v20h-40v260h-20"/><path fill="#F7CC96" d="M3638 98h62v84h-62z"/><path fill="#C68A74" d="M3600 199v41h20v40h20v-40h20v-21h-39v-20"/><path fill="#E2B79C" d="M3618 98h42v24h-42V98zm60-18h22v20h-22V80zm-18 58h20v22h-20v-22zm-42 2h22v42h-22v-42z"/><path fill="#472A1E" d="M3620 180h80v40h-80v-20h-20v-42h20v22m0-100V60h80v20h-20v20h-62V80"/><path fill="#5D4439" d="M3600 80h20v42h-20z"/><path fill="#212121" d="M3600 120h42v20h-42zm58 0h24v20h-24z"/><path fill="#FFF" d="M3680 120h20v20h-20zm-40 0h20v20h-20z"/><path fill="#C68A74" d="M3600 140h20v20h-20z"/><path fill="#2C3137" d="M4402 960h-404V18h404"/><path fill="#A77033" d="M4339 59h-38l-1 1v900h81V39h-40l-1 1-1 1"/><path fill="#D3D3D3" d="M4300 500h20v40h-1v40h1v40h-20"/><path fill="#F4F4F4" d="M4280 540h40v40h-40z"/><path fill="#9C672C" d="M4401 960V19h-61v41h-40V40h80v920"/><path fill="#303945" fill-opacity=".8" d="M3960 960h500v20h-500v-20zm-40 0h20v20h-20v-20z"/><path fill="#D7D8DC" d="M4420 0h-440v960h20V20h400v940h20"/><path fill="#303945" fill-opacity=".8" d="M4060 960h240v20h-240z"/><path fill="#472A1E" d="M4220 959h40v21h-40zm-120 1h20v-1h20v21h-40"/><path fill="#57629D" d="M4220 941h20V760h20V539h-139v201h-1v201h20V760h20V580h61v160h-1"/><path fill="#495491" d="M4220 580h20v160h-20V580zm40-80h-140v240h20V580h20v-20h40v-20h60v-40zm-40 260h20v40h-20v-40zm-100 0h20v40h-20v-40zm100 180h40v20h-40v-20zm-100 0h20v20h-20v-20z"/><path fill="#DFA8A8" d="M4120 240v320h20v-20h40v-20h20v20h40v20h20V240h-20v-20h-100v20"/><path fill="#F5C3C3" d="M4220 259h20v281h-20V259zm-80 0h20v281h-20V259z"/><path fill="#FFE8E8" fill-opacity=".3" d="M4120 280h140v20h-140v-20zm0 60h140v20h-140v-20zm0 60h140v20h-140v-20zm0 60h140v20h-140v-20zm0 60h60v20h-60v-20zm80 0h60v20h-60v-20z"/><path fill="#B47878" d="M4180 280v-20h-40v-20h20v40h60v-40h20v20h-40v260h-20"/><path fill="#DFA8A8" d="M4300 300h-21v60h1v240h20"/><path fill="#F7CC96" d="M4280 600h20v20h-20z"/><path fill="#B47878" d="M4280 580h20v20h-20z"/><path fill="#F5C3C3" d="M4259 260h21v100h-21z"/><path fill="#FFE8E8" fill-opacity=".3" d="M4260 280h20v20h-20v-20zm0 60h40v20h-40v-20zm20 60h20v20h-20v-20zm0 60h20v20h-20v-20zm0 60h20v20h-20v-20z"/><path fill="#DFA8A8" d="M4080 300h21v60h-1v240h-20"/><path fill="#F7CC96" d="M4100 600h-20v20h20z"/><path fill="#B47878" d="M4100 580h-20v20h20z"/><path fill="#F5C3C3" d="M4121 260h-21v100h21z"/><path fill="#FFE8E8" fill-opacity=".3" d="M4120 280h-20v20h20v-20zm0 60h-40v20h40v-20zm-20 60h-20v20h20v-20zm0 60h-20v20h20v-20zm0 60h-20v20h20v-20z"/><path fill="#F7CC96" d="M4198 98h62v84h-62z"/><path fill="#C68A74" d="M4160 199v41h20v40h20v-40h20v-21h-39v-20"/><path fill="#E2B79C" d="M4178 98h42v24h-42V98zm60-18h22v20h-22V80zm-18 58h20v22h-20v-22zm-42 2h22v42h-22v-42z"/><path fill="#472A1E" d="M4180 180h80v40h-80v-20h-20v-42h20v22m0-100V60h80v20h-20v20h-62V80"/><path fill="#5D4439" d="M4160 80h20v42h-20z"/><path fill="#212121" d="M4160 120h42v20h-42zm58 0h24v20h-24z"/><path fill="#FFF" d="M4240 120h20v20h-20zm-40 0h20v20h-20z"/><path fill="#C68A74" d="M4160 140h20v20h-20z"/><path fill="#2C3137" d="M4962 960h-404V18h404"/><path fill="#D29047" d="M4799 960h142V199h-22v40h-20v40h-20v40h-20v40h-20v40h-20v40h-20"/><path fill="#A77033" d="M4799 440h21v-40h20v-40h20v-40h20v-40h20v-40h20v-40h21V39h-40l-1 1-1 1v18h-38l-1 1-1 1v18h-38l-1 1-1 1v18h-20"/><path fill="#B87A36" d="M4780 479h20v481h-20zm160-320h20v801h-20z"/><path fill="#9C672C" d="M4780 80h80V40h80v120h20l1-141h-61v41h-80v40h-20v380h-20"/><path fill="#D3D3D3" d="M4800 500h20v40h-1v40h1v40h-20"/><path fill="#F4F4F4" d="M4780 540h40v40h-40z"/><path fill="#303945" fill-opacity=".8" d="M4520 960h500v20h-500v-20zm-40 0h20v20h-20v-20z"/><path fill="#D7D8DC" d="M4980 0h-440v960h20V20h400v940h20"/><path fill="#303945" fill-opacity=".8" d="M4620 960h240v20h-240z"/><path fill="#472A1E" d="M4780 959h40v21h-40zm-120 1h20v-1h20v21h-40"/><path fill="#57629D" d="M4780 941h20V760h20V539h-139v201h-1v201h20V760h20V580h61v160h-1"/><path fill="#495491" d="M4780 580h20v160h-20V580zm40-80h-140v240h20V580h20v-20h40v-20h60v-40zm-40 260h20v40h-20v-40zm-100 0h20v40h-20v-40zm100 180h40v20h-40v-20zm-100 0h20v20h-20v-20z"/><path fill="#DFA8A8" d="M4680 240v320h20v-20h40v-20h20v20h40v20h20V240h-20v-20h-100v20"/><path fill="#F5C3C3" d="M4780 259h20v281h-20V259zm-80 0h20v281h-20V259z"/><path fill="#FFE8E8" fill-opacity=".3" d="M4680 280h140v20h-140v-20zm0 60h140v20h-140v-20zm0 60h140v20h-140v-20zm0 60h140v20h-140v-20zm0 60h60v20h-60v-20zm80 0h60v20h-60v-20z"/><path fill="#B47878" d="M4740 280v-20h-40v-20h20v40h60v-40h20v20h-40v260h-20"/><path fill="#DFA8A8" d="M4860 300h-21v60h1v240h20"/><path fill="#F7CC96" d="M4840 600h20v20h-20z"/><path fill="#B47878" d="M4840 580h20v20h-20z"/><path fill="#F5C3C3" d="M4819 260h21v100h-21z"/><path fill="#FFE8E8" fill-opacity=".3" d="M4820 280h20v20h-20v-20zm0 60h40v20h-40v-20zm20 60h20v20h-20v-20zm0 60h20v20h-20v-20zm0 60h20v20h-20v-20z"/><path fill="#DFA8A8" d="M4640 300h21v60h-1v240h-20"/><path fill="#F7CC96" d="M4660 600h-20v20h20z"/><path fill="#B47878" d="M4660 580h-20v20h20z"/><path fill="#F5C3C3" d="M4681 260h-21v100h21z"/><path fill="#FFE8E8" fill-opacity=".3" d="M4680 280h-20v20h20v-20zm0 60h-40v20h40v-20zm-20 60h-20v20h20v-20zm0 60h-20v20h20v-20zm0 60h-20v20h20v-20z"/><path fill="#F7CC96" d="M4758 98h62v84h-62z"/><path fill="#C68A74" d="M4720 199v41h20v40h20v-40h20v-21h-39v-20"/><path fill="#E2B79C" d="M4738 98h42v24h-42V98zm60-18h22v20h-22V80zm-18 58h20v22h-20v-22zm-42 2h22v42h-22v-42z"/><path fill="#472A1E" d="M4740 180h80v40h-80v-20h-20v-42h20v22m0-100V60h80v20h-20v20h-62V80"/><path fill="#5D4439" d="M4720 80h20v42h-20z"/><path fill="#212121" d="M4720 120h42v20h-42zm58 0h24v20h-24z"/><path fill="#FFF" d="M4800 120h20v20h-20zm-40 0h20v20h-20z"/><path fill="#C68A74" d="M4720 140h20v20h-20z"/><path fill="#2C3137" d="M5522 960h-404V18h404"/><path fill="#D29047" d="M5501 960h-282V319h20v-20h20v-20h20v-20h20v-20h20v-20h20v-20h20v-20h20v-20h20v-20h20v-20h20V99h20V79h20V59h22"/><path fill="#A77033" d="M5501 39v21h-21v20h-20v20h-20v20h-20v20h-20v20h-20v20h-20v20h-20v20h-20v20h-20v20h-20v20h-20v20h-20v20h-21V79h60V59h40V41h1v-1h1v-1"/><path fill="#B87A36" d="M5200 339h20v621h-20zm300-300h21v921h-21z"/><path fill="#9C672C" d="M5220 80h60V60h60V40h181V20h-201v20h-60v20h-60v280h20"/><path fill="#D3D3D3" d="M5240 480h40v40h-2v40h2v40h-40v-40h2v-40h-2"/><path fill="#F4F4F4" d="M5240 520h40v40h-40z"/><path fill="#303945" fill-opacity=".8" d="M5080 960h500v20h-500v-20zm-40 0h20v20h-20v-20z"/><path fill="#D7D8DC" d="M5540 0h-440v960h20V20h400v940h20"/><path fill="#303945" fill-opacity=".8" d="M5180 960h240v20h-240z"/><path fill="#472A1E" d="M5340 959h40v21h-40zm-120 1h20v-1h20v21h-40"/><path fill="#57629D" d="M5340 941h20V760h20V539h-139v201h-1v201h20V760h20V580h61v160h-1"/><path fill="#495491" d="M5340 580h20v160h-20V580zm40-80h-140v240h20V580h20v-20h40v-20h60v-40zm-40 260h20v40h-20v-40zm-100 0h20v40h-20v-40zm100 180h40v20h-40v-20zm-100 0h20v20h-20v-20z"/><path fill="#DFA8A8" d="M5240 240v320h20v-20h40v-20h20v20h40v20h20V240h-20v-20h-100v20"/><path fill="#F5C3C3" d="M5340 259h20v281h-20V259zm-80 0h20v281h-20V259z"/><path fill="#FFE8E8" fill-opacity=".3" d="M5240 280h140v20h-140v-20zm0 60h140v20h-140v-20zm0 60h140v20h-140v-20zm0 60h140v20h-140v-20zm0 60h60v20h-60v-20zm80 0h60v20h-60v-20z"/><path fill="#B47878" d="M5300 280v-20h-40v-20h20v40h60v-40h20v20h-40v260h-20"/><path fill="#DFA8A8" d="M5420 300h-21v60h1v240h20"/><path fill="#F7CC96" d="M5400 600h20v20h-20z"/><path fill="#B47878" d="M5400 580h20v20h-20z"/><path fill="#F5C3C3" d="M5379 260h21v100h-21z"/><path fill="#FFE8E8" fill-opacity=".3" d="M5380 280h20v20h-20v-20zm0 60h40v20h-40v-20zm20 60h20v20h-20v-20zm0 60h20v20h-20v-20zm0 60h20v20h-20v-20z"/><path fill="#DFA8A8" d="M5200 300h21v60h-1v240h-20"/><path fill="#F7CC96" d="M5220 600h-20v20h20z"/><path fill="#B47878" d="M5220 580h-20v20h20z"/><path fill="#F5C3C3" d="M5241 260h-21v100h21z"/><path fill="#FFE8E8" fill-opacity=".3" d="M5240 280h-20v20h20v-20zm0 60h-40v20h40v-20zm-20 60h-20v20h20v-20zm0 60h-20v20h20v-20zm0 60h-20v20h20v-20z"/><path fill="#F7CC96" d="M5318 98h62v84h-62z"/><path fill="#C68A74" d="M5280 199v41h20v40h20v-40h20v-21h-39v-20"/><path fill="#E2B79C" d="M5298 98h42v24h-42V98zm60-18h22v20h-22V80zm-18 58h20v22h-20v-22zm-42 2h22v42h-22v-42z"/><path fill="#472A1E" d="M5300 180h80v40h-80v-20h-20v-42h20v22m0-100V60h80v20h-20v20h-62V80"/><path fill="#5D4439" d="M5280 80h20v42h-20z"/><path fill="#212121" d="M5280 120h42v20h-42zm58 0h24v20h-24z"/><path fill="#FFF" d="M5360 120h20v20h-20zm-40 0h20v20h-20z"/><path fill="#C68A74" d="M5280 140h20v20h-20z"/><path fill="#D29047" d="M5698 38h364v922h-364z"/><path fill="#B87A36" d="M5678 960V18h404v942h-22V40h-360v920"/><path fill="#D3D3D3" d="M5720 480h40v40h-2v40h2v40h-40v-40h2v-40h-2"/><path fill="#F4F4F4" d="M5720 520h40v40h-40z"/><path fill="#303945" fill-opacity=".8" d="M5640 960h500v20h-500v-20zm-40 0h20v20h-20v-20z"/><path fill="#D7D8DC" d="M6100 0h-440v960h20V20h400v940h20"/><path fill="#303945" fill-opacity=".8" d="M5740 960h240v20h-240z"/><path fill="#472A1E" d="M5900 959h40v21h-40zm-120 1h20v-1h20v21h-40"/><path fill="#57629D" d="M5900 941h20V760h20V539h-139v201h-1v201h20V760h20V580h61v160h-1"/><path fill="#495491" d="M5900 580h20v160h-20V580zm40-80h-140v240h20V580h20v-20h40v-20h60v-40zm-40 260h20v40h-20v-40zm-100 0h20v40h-20v-40zm100 180h40v20h-40v-20zm-100 0h20v20h-20v-20z"/><path fill="#DFA8A8" d="M5800 240v320h20v-20h40v-20h20v20h40v20h20V240h-20v-20h-100v20"/><path fill="#F5C3C3" d="M5900 259h20v281h-20V259zm-80 0h20v281h-20V259z"/><path fill="#FFE8E8" fill-opacity=".3" d="M5800 280h140v20h-140v-20zm0 60h140v20h-140v-20zm0 60h140v20h-140v-20zm0 60h140v20h-140v-20zm0 60h60v20h-60v-20zm80 0h60v20h-60v-20z"/><path fill="#B47878" d="M5860 280v-20h-40v-20h20v40h60v-40h20v20h-40v260h-20"/><path fill="#DFA8A8" d="M5980 300h-21v60h1v240h20"/><path fill="#F7CC96" d="M5960 600h20v20h-20z"/><path fill="#B47878" d="M5960 580h20v20h-20z"/><path fill="#F5C3C3" d="M5939 260h21v100h-21z"/><path fill="#FFE8E8" fill-opacity=".3" d="M5940 280h20v20h-20v-20zm0 60h40v20h-40v-20zm20 60h20v20h-20v-20zm0 60h20v20h-20v-20zm0 60h20v20h-20v-20z"/><path fill="#DFA8A8" d="M5760 300h21v60h-1v240h-20"/><path fill="#F7CC96" d="M5780 600h-20v20h20z"/><path fill="#B47878" d="M5780 580h-20v20h20z"/><path fill="#F5C3C3" d="M5801 260h-21v100h21z"/><path fill="#FFE8E8" fill-opacity=".3" d="M5800 280h-20v20h20v-20zm0 60h-40v20h40v-20zm-20 60h-20v20h20v-20zm0 60h-20v20h20v-20zm0 60h-20v20h20v-20z"/><path fill="#F7CC96" d="M5878 98h62v84h-62z"/><path fill="#C68A74" d="M5840 199v41h20v40h20v-40h20v-21h-39v-20"/><path fill="#E2B79C" d="M5858 98h42v24h-42V98zm60-18h22v20h-22V80zm-18 58h20v22h-20v-22zm-42 2h22v42h-22v-42z"/><path fill="#472A1E" d="M5860 180h80v40h-80v-20h-20v-42h20v22m0-100V60h80v20h-20v20h-62V80"/><path fill="#5D4439" d="M5840 80h20v42h-20z"/><path fill="#212121" d="M5840 120h42v20h-42zm58 0h24v20h-24z"/><path fill="#FFF" d="M5920 120h20v20h-20zm-40 0h20v20h-20z"/><path fill="#C68A74" d="M5840 140h20v20h-20z"/></g></svg>