<svg xmlns="http://www.w3.org/2000/svg" width="3600" height="5880" xmlns:xlink="http://www.w3.org/1999/xlink"><defs><path id="a" d="M0 40h20v140H0V40zm20 200h20v-60H20v60zM20 0h20v100H20V0zm180 40h20v140h-20V40zm-20 140h20v60h-20v-60zm0-180h20v100h-20V0z"/><path id="c" d="M20 40h20v180H20V40zM0 220h20v60H0v-60zM0 0h20v100H0V0z"/><path id="e" d="M0 40h20v140H0V40zm20 200h20v-60H20v60zM20 0h20v100H20V0zm180 40h20v140h-20V40zm-20 140h20v60h-20v-60zm0-180h20v100h-20V0z"/><path id="g" d="M20 40h20v200H20V40zM0 240h20v60H0v-60zM0 0h20v100H0V0z"/><path id="i" d="M0 40h20v140H0V40zm20 200h20v-60H20v60zM20 0h20v100H20V0zm180 20h20v160h-20V20zm-20 160h20v60h-20v-60zm0-180h20v100h-20V0z"/><path id="k" d="M0 40h20v180H0V40zm20 220h20v-40H20v40zM20 0h20v100H20V0zm180 20h20v200h-20V20zm-20 200h20v60h-20v-60zm0-220h20v100h-20V0z"/><path id="m" d="M0 40h20v180H0V40zm20 220h20v-40H20v40zM20 0h20v100H20V0zm180 20h20v200h-20V20zm-20 200h20v60h-20v-60zm0-220h20v100h-20V0z"/><path id="o" d="M0 40h20v140H0V40zm20 200h20v-60H20v60zM20 0h20v100H20V0zm180 20h20v160h-20V20zm-20 160h20v60h-20v-60zm0-180h20v100h-20V0z"/><path id="q" d="M20 40h20v200H20V40zM0 240h20v60H0v-60zM0 0h20v100H0V0z"/><path id="s" d="M0 40h20v140H0V40zm20 200h20v-60H20v60zM20 0h20v100H20V0zm180 40h20v140h-20V40zm-20 140h20v60h-20v-60zm0-180h20v100h-20V0z"/><path id="u" d="M20 40h20v180H20V40zM0 220h20v60H0v-60zM0 0h20v100H0V0z"/><path id="w" d="M0 40h20v140H0V40zm20 200h20v-60H20v60zM20 0h20v100H20V0zm180 40h20v140h-20V40zm-20 140h20v60h-20v-60zm0-180h20v100h-20V0z"/><path id="y" d="M0 40h20v140H0V40zm20 200h20v-60H20v60zM20 0h20v100H20V0zm180 40h20v140h-20V40zm-20 140h20v60h-20v-60zm0-180h20v100h-20V0z"/><linearGradient id="A" x1="50%" x2="50%" y1="2.4%" y2="100%"><stop stop-color="#FFF" stop-opacity=".3" offset="0%"/><stop stop-color="#7EF3FF" stop-opacity=".3" offset="100%"/></linearGradient><path id="B" d="M0 40h20v140H0V40zm20 200h20v-60H20v60zM20 0h20v100H20V0zm180 40h20v140h-20V40zm-20 140h20v60h-20v-60zm0-180h20v100h-20V0z"/><path id="D" d="M0 40h20v140H0V40zm20 200h20v-60H20v60zM20 0h20v100H20V0zm180 40h20v140h-20V40zm-20 140h20v60h-20v-60zm0-180h20v100h-20V0z"/><path id="F" d="M0 40h20v140H0V40zm20 180h20v-40H20v40zM20 0h20v100H20V0zm180 40h20v140h-20V40zm-20 140h20v40h-20v-40zm0-180h20v100h-20V0z"/><path id="H" d="M0 40h20v140H0V40zm20 180h20v-40H20v40zM20 0h20v100H20V0zm180 40h20v140h-20V40zm-20 140h20v40h-20v-40zm0-180h20v100h-20V0z"/><path id="J" d="M0 40h20v140H0V40zm20 180h20v-40H20v40zM20 0h20v100H20V0zm180 40h20v140h-20V40zm-20 140h20v40h-20v-40zm0-180h20v100h-20V0z"/><path id="L" d="M0 40h20v140H0V40zm20 180h20v-40H20v40zM20 0h20v100H20V0zm180 40h20v140h-20V40zm-20 140h20v40h-20v-40zm0-180h20v100h-20V0z"/><path id="N" d="M0 40h20v140H0V40zm20 180h20v-40H20v40zM20 0h20v100H20V0zm180 40h20v140h-20V40zm-20 140h20v40h-20v-40zm0-180h20v100h-20V0z"/></defs><g fill="none" fill-rule="evenodd"><path fill="#303945" fill-opacity=".8" d="M1280 940h240v20h-240z"/><path fill="#472A1E" d="M1440 939h40v21h-40zm-120 1h20v-1h20v21h-40"/><path fill="#57629D" d="M1440 921h20V740h20V519h-139v201h-1v201h20V740h20V560h61v160h-1"/><path fill="#495491" d="M1440 560h20v160h-20V560zm40-80h-140v240h20V560h20v-20h40v-20h60v-40zm-40 260h20v40h-20v-40zm-100 0h20v40h-20v-40zm100 180h40v20h-40v-20zm-100 0h20v20h-20v-20z"/><path fill="#DFA8A8" d="M1340 200v320h20v-20h40v-20h20v20h40v20h20V200h-20v-20h-100v20"/><path fill="#F5C3C3" d="M1440 219h20v281h-20V219zm-80 0h20v281h-20V219z"/><path fill="#FFE8E8" fill-opacity=".3" d="M1340 240h140v20h-140v-20zm0 60h140v20h-140v-20zm0 60h140v20h-140v-20zm0 60h140v20h-140v-20zm0 60h60v20h-60v-20zm80 0h60v20h-60v-20z"/><path fill="#B47878" d="M1400 240v-20h-40v-20h20v40h60v-40h20v20h-40v260h-20"/><path fill="#DFA8A8" d="M1520 260h-21v60h1v240h20"/><path fill="#F7CC96" d="M1500 560h20v20h-20z"/><path fill="#B47878" d="M1500 540h20v20h-20z"/><path fill="#F5C3C3" d="M1479 220h21v100h-21z"/><path fill="#FFE8E8" fill-opacity=".3" d="M1480 240h20v20h-20v-20zm0 60h40v20h-40v-20zm20 60h20v20h-20v-20zm0 60h20v20h-20v-20zm0 60h20v20h-20v-20z"/><path fill="#DFA8A8" d="M1300 260h21v60h-1v240h-20"/><path fill="#F7CC96" d="M1320 560h-20v20h20z"/><path fill="#B47878" d="M1320 540h-20v20h20z"/><path fill="#F5C3C3" d="M1341 220h-21v100h21z"/><path fill="#FFE8E8" fill-opacity=".3" d="M1340 240h-20v20h20v-20zm0 60h-40v20h40v-20zm-20 60h-20v20h20v-20zm0 60h-20v20h20v-20zm0 60h-20v20h20v-20z"/><path fill="#F7CC96" d="M1418 78h62v84h-62z"/><path fill="#C68A74" d="M1400 198h20v42h-20v-42zm-20-18h20v20h-20v-20z"/><path fill="#E2B79C" d="M1398 78h42v24h-42V78zm60-18h22v20h-22V60zm-18 58h20v22h-20v-22zm-42 2h22v42h-22v-42z"/><path fill="#472A1E" d="M1400 160h80v40h-80v-40zm-20-22h20v42h-20v-42zm20-78V40h80v20h-20v20h-62V60h2z"/><path fill="#5D4439" d="M1380 60h20v42h-20z"/><path fill="#212121" d="M1380 100h42v20h-42zm58 0h24v20h-24z"/><path fill="#FFF" d="M1460 100h20v20h-20zm-40 0h20v20h-20z"/><path fill="#C68A74" d="M1380 120h20v20h-20z"/><path fill="#303945" fill-opacity=".8" d="M880 940h240v20H880z"/><path fill="#472A1E" d="M1040 939h40v21h-40zm-120 1h20v-1h20v21h-40"/><path fill="#57629D" d="M1040 921h20V740h20V519H941v201h-1v201h20V740h20V560h61v160h-1"/><path fill="#495491" d="M1040 560h20v160h-20V560zm40-80H940v240h20V560h20v-20h40v-20h60v-40zm-40 260h20v40h-20v-40zm-100 0h20v40h-20v-40zm100 180h40v20h-40v-20zm-100 0h20v20h-20v-20z"/><path fill="#DFA8A8" d="M940 200v320h20v-20h40v-20h20v20h40v20h20V200h-20v-20H960v20"/><path fill="#F5C3C3" d="M1040 219h20v281h-20V219zm-80 0h20v281h-20V219z"/><path fill="#FFE8E8" fill-opacity=".3" d="M940 240h140v20H940v-20zm0 60h140v20H940v-20zm0 60h140v20H940v-20zm0 60h140v20H940v-20zm0 60h60v20h-60v-20zm80 0h60v20h-60v-20z"/><path fill="#B47878" d="M1000 240v-20h-40v-20h20v40h60v-40h20v20h-40v260h-20"/><path fill="#DFA8A8" d="M1120 260h-21v60h1v240h20"/><path fill="#F7CC96" d="M1100 560h20v20h-20z"/><path fill="#B47878" d="M1100 540h20v20h-20z"/><path fill="#F5C3C3" d="M1079 220h21v100h-21z"/><path fill="#FFE8E8" fill-opacity=".3" d="M1080 240h20v20h-20v-20zm0 60h40v20h-40v-20zm20 60h20v20h-20v-20zm0 60h20v20h-20v-20zm0 60h20v20h-20v-20z"/><path fill="#DFA8A8" d="M900 260h21v60h-1v240h-20"/><path fill="#F7CC96" d="M920 560h-20v20h20z"/><path fill="#B47878" d="M920 540h-20v20h20z"/><path fill="#F5C3C3" d="M941 220h-21v100h21z"/><path fill="#FFE8E8" fill-opacity=".3" d="M940 240h-20v20h20v-20zm0 60h-40v20h40v-20zm-20 60h-20v20h20v-20zm0 60h-20v20h20v-20zm0 60h-20v20h20v-20z"/><path fill="#F7CC96" d="M1018 58h62v84h-62z"/><path fill="#C68A74" d="M980 159v41h20v40h20v-40h20v-21h-39v-20"/><path fill="#E2B79C" d="M998 58h42v24h-42V58zm60-18h22v20h-22V40zm-18 58h20v22h-20V98zm-42 2h22v42h-22v-42z"/><path fill="#472A1E" d="M1000 140h80v40h-80v-20h-20v-42h20v22m0-100V20h80v20h-20v20h-62V40"/><path fill="#5D4439" d="M980 40h20v42h-20z"/><path fill="#212121" d="M980 80h42v20h-42zm58 0h24v20h-24z"/><path fill="#FFF" d="M1060 80h20v20h-20zm-40 0h20v20h-20z"/><path fill="#C68A74" d="M980 100h20v20h-20z"/><path fill="#303945" fill-opacity=".8" d="M480 940h240v20H480z"/><path fill="#472A1E" d="M640 939h40v21h-40zm-120 1h20v-1h20v21h-40"/><path fill="#57629D" d="M640 921h20V740h20V519H541v201h-1v201h20V740h20V560h61v160h-1"/><path fill="#495491" d="M640 560h20v160h-20V560zm40-80H540v240h20V560h20v-20h40v-20h60v-40zm-40 260h20v40h-20v-40zm-100 0h20v40h-20v-40zm100 180h40v20h-40v-20zm-100 0h20v20h-20v-20z"/><path fill="#DFA8A8" d="M540 220v320h20v-20h40v-20h20v20h40v20h20V220h-20v-20H560v20"/><path fill="#F5C3C3" d="M640 239h20v281h-20V239zm-80 0h20v281h-20V239z"/><path fill="#FFE8E8" fill-opacity=".3" d="M540 260h140v20H540v-20zm0 60h140v20H540v-20zm0 60h140v20H540v-20zm0 60h140v20H540v-20zm0 60h60v20h-60v-20zm80 0h60v20h-60v-20z"/><path fill="#B47878" d="M600 260v-20h-40v-20h20v40h60v-40h20v20h-40v260h-20"/><path fill="#DFA8A8" d="M720 280h-21v60h1v240h20"/><path fill="#F7CC96" d="M700 580h20v20h-20z"/><path fill="#B47878" d="M700 560h20v20h-20z"/><path fill="#F5C3C3" d="M679 240h21v100h-21z"/><path fill="#FFE8E8" fill-opacity=".3" d="M680 260h20v20h-20v-20zm0 60h40v20h-40v-20zm20 60h20v20h-20v-20zm0 60h20v20h-20v-20zm0 60h20v20h-20v-20z"/><path fill="#DFA8A8" d="M500 280h21v60h-1v240h-20"/><path fill="#F7CC96" d="M520 580h-20v20h20z"/><path fill="#B47878" d="M520 560h-20v20h20z"/><path fill="#F5C3C3" d="M541 240h-21v100h21z"/><path fill="#FFE8E8" fill-opacity=".3" d="M540 260h-20v20h20v-20zm0 60h-40v20h40v-20zm-20 60h-20v20h20v-20zm0 60h-20v20h20v-20zm0 60h-20v20h20v-20z"/><path fill="#C68A74" d="M580 198h60v22h-20v40h-20v-40h-20"/><path fill="#F7CC96" d="M618 58h62v84h-62z"/><path fill="#C68A74" d="M580 159v41h20v40h20v-40h20v-21h-39v-20"/><path fill="#E2B79C" d="M598 58h42v24h-42V58zm60-18h22v20h-22V40zm-18 58h20v22h-20V98zm-42 2h22v42h-22v-42z"/><path fill="#472A1E" d="M600 140h80v40h-80v-20h-20v-42h20v22m0-100V20h80v20h-20v20h-62V40"/><path fill="#5D4439" d="M580 40h20v42h-20z"/><path fill="#212121" d="M580 80h42v20h-42zm58 0h24v20h-24z"/><path fill="#FFF" d="M660 80h20v20h-20zm-40 0h20v20h-20z"/><path fill="#C68A74" d="M580 100h20v20h-20z"/><path fill="#303945" fill-opacity=".8" d="M80 940h240v20H80z"/><path fill="#472A1E" d="M240 939h40v21h-40zm-120 1h20v-1h20v21h-40"/><path fill="#57629D" d="M240 921h20V740h20V519H141v201h-1v201h20V740h20V560h61v160h-1"/><path fill="#495491" d="M240 560h20v160h-20V560zm40-80H140v240h20V560h20v-20h40v-20h60v-40zm-40 260h20v40h-20v-40zm-100 0h20v40h-20v-40zm100 180h40v20h-40v-20zm-100 0h20v20h-20v-20z"/><path fill="#DFA8A8" d="M140 220v320h20v-20h40v-20h20v20h40v20h20V220h-20v-20H160v20"/><path fill="#F5C3C3" d="M240 239h20v281h-20V239zm-80 0h20v281h-20V239z"/><path fill="#FFE8E8" fill-opacity=".3" d="M140 260h140v20H140v-20zm0 60h140v20H140v-20zm0 60h140v20H140v-20zm0 60h140v20H140v-20zm0 60h60v20h-60v-20zm80 0h60v20h-60v-20z"/><path fill="#B47878" d="M200 260v-20h-40v-20h20v40h60v-40h20v20h-40v260h-20"/><path fill="#DFA8A8" d="M320 280h-21v60h1v240h20"/><path fill="#F7CC96" d="M300 580h20v20h-20z"/><path fill="#B47878" d="M300 560h20v20h-20z"/><path fill="#F5C3C3" d="M279 240h21v100h-21z"/><path fill="#FFE8E8" fill-opacity=".3" d="M280 260h20v20h-20v-20zm0 60h40v20h-40v-20zm20 60h20v20h-20v-20zm0 60h20v20h-20v-20zm0 60h20v20h-20v-20z"/><path fill="#DFA8A8" d="M100 280h21v60h-1v240h-20"/><path fill="#F7CC96" d="M120 580h-20v20h20z"/><path fill="#B47878" d="M120 560h-20v20h20z"/><path fill="#F5C3C3" d="M141 240h-21v100h21z"/><path fill="#FFE8E8" fill-opacity=".3" d="M140 260h-20v20h20v-20zm0 60h-40v20h40v-20zm-20 60h-20v20h20v-20zm0 60h-20v20h20v-20zm0 60h-20v20h20v-20z"/><path fill="#F7CC96" d="M218 78h62v84h-62z"/><path fill="#C68A74" d="M180 179v41h20v40h20v-40h20v-21h-39v-20"/><path fill="#E2B79C" d="M198 78h42v24h-42V78zm60-18h22v20h-22V60zm-18 58h20v22h-20v-22zm-42 2h22v42h-22v-42z"/><path fill="#472A1E" d="M200 160h80v40h-80v-20h-20v-42h20v22m0-100V40h80v20h-20v20h-62V60"/><path fill="#5D4439" d="M180 60h20v42h-20z"/><path fill="#212121" d="M180 100h42v20h-42zm58 0h24v20h-24z"/><path fill="#FFF" d="M260 100h20v20h-20zm-40 0h20v20h-20z"/><path fill="#C68A74" d="M180 120h20v20h-20z"/><path fill="#303945" fill-opacity=".8" d="M80 1920h240v20H80z"/><path fill="#472B1F" d="M240 1919h40v21h-40zm-160-79h20v40H80z"/><path fill="#58629C" d="M160 1659h19v-160h101v221h-20v181h-20v-361h-40v140h-20v20h-1v19h-40v20h-19l-20 1v81h20v-81h1v-39h19v-21h20"/><path fill="#495491" d="M160 1460h120v40h-40v20h-40v20h-20v120h-20v-200zm80 80h20v160h-20v-160zm0 180h20v40h-20v-40zm-120-20h60v20h-40v20h-20v-40zm120 200h40v20h-40v-20zm-140-80h20v20h-20v-20z"/><path fill="#C68A74" d="M200 1180h60v80h-60z"/><path fill="#DFA8A8" d="M160 1240h20v-20h40v-20h20v40h20v-40h20v280h-40v20h-60v20h-20v20h-20v-160h20"/><path fill="#F4C3C3" d="M200 1220h20v280h-20v-280zm-40 20h20v280h-20v-280z"/><path fill="#FFE8E8" fill-opacity=".3" d="M160 1240h120v20H160v-20zm0 60h120v20H160v-20zm0 60h120v20H160v-20zm-20 60h140v20H140v-20zm0 60h100v20H140v-20zm0 40h20v20h-20v-20z"/><path fill="#B47878" d="M240 1220h-60v-20h40v40h60v-20h-20v260h-20"/><path fill="#F7CC96" d="M238 1058h62v22h-1v20h1v42h-62"/><path fill="#C68A74" d="M200 1159v41h40v40h20v-61h-39v-20"/><path fill="#E2B79C" d="M239 1059h21v22h-21v-22zm39-19h22v20h-22v-20zm2 59h20v21h-20v-21zm-61 1h41v41h-41v-41z"/><path fill="#472A1E" d="M220 1140h80v40h-80v-20h-20v-60h20m0-80h80v40h-41v-19h-39"/><path fill="#5D4439" d="M200 1040h60v20h-20v21h-40"/><path fill="#212121" d="M220 1080h48.8v20H220zm63.2 0H300v20h-16.8z"/><path fill="#FFF" d="M268 1080h16v20h-16z"/><path fill="#C68A74" d="M200 1080h20v20h-20z"/><path fill="#B47878" fill-opacity=".4" d="M201 1320v180h-21v-180h1v-40h-21v40"/><path fill="#DFA8A8" d="M220 1320v181h-20v-241h-20v60"/><path fill="#F7CC96" d="M200 1519h20v21h-20z"/><path fill="#B47878" d="M200 1500h20v20h-20z"/><path fill="#303945" fill-opacity=".8" d="M80 2900h240v20H80z"/><path fill="#472A1E" d="M240 2899h40v21h-40zm-120 1h20v-1h20v21h-40"/><path fill="#57629D" d="M240 2881h20v-181h20v-221H141v201h-1v201h20v-181h20v-180h61v160h-1"/><path fill="#495491" d="M240 2520h20v160h-20v-160zm40-80H140v240h20v-160h20v-20h40v-20h60v-40zm-40 260h20v40h-20v-40zm-100 0h20v40h-20v-40zm100 180h40v20h-40v-20zm-100 0h20v20h-20v-20z"/><path fill="#DFA8A8" d="M140 2180v320h20v-20h40v-20h20v20h40v20h20v-320h-20v-20H160v20"/><path fill="#F5C3C3" d="M240 2199h20v281h-20v-281zm-80 0h20v281h-20v-281z"/><path fill="#FFE8E8" fill-opacity=".3" d="M140 2220h140v20H140v-20zm0 60h140v20H140v-20zm0 60h140v20H140v-20zm0 60h140v20H140v-20zm0 60h60v20h-60v-20zm80 0h60v20h-60v-20z"/><path fill="#B47878" d="M200 2220v-20h-40v-20h20v40h60v-40h20v20h-40v260h-20"/><path fill="#DFA8A8" d="M320 2240h-21v60h1v240h20"/><path fill="#F7CC96" d="M300 2540h20v20h-20z"/><path fill="#B47878" d="M300 2520h20v20h-20z"/><path fill="#F5C3C3" d="M279 2200h21v100h-21z"/><path fill="#FFE8E8" fill-opacity=".3" d="M280 2220h20v20h-20v-20zm0 60h40v20h-40v-20zm20 60h20v20h-20v-20zm0 60h20v20h-20v-20zm0 60h20v20h-20v-20z"/><path fill="#DFA8A8" d="M100 2240h21v60h-1v240h-20"/><path fill="#F7CC96" d="M120 2540h-20v20h20z"/><path fill="#B47878" d="M120 2520h-20v20h20z"/><path fill="#F5C3C3" d="M141 2200h-21v100h21z"/><path fill="#FFE8E8" fill-opacity=".3" d="M140 2220h-20v20h20v-20zm0 60h-40v20h40v-20zm-20 60h-20v20h20v-20zm0 60h-20v20h20v-20zm0 60h-20v20h20v-20z"/><path fill="#F7CC96" d="M218 2038h62v84h-62z"/><path fill="#C68A74" d="M180 2139v41h20v40h20v-40h20v-21h-39v-20"/><path fill="#E2B79C" d="M198 2038h42v24h-42v-24zm60-18h22v20h-22v-20zm-18 58h20v22h-20v-22zm-42 2h22v42h-22v-42z"/><path fill="#472A1E" d="M200 2120h80v40h-80v-20h-20v-42h20v22m0-100v-20h80v20h-20v20h-62v-20"/><path fill="#5D4439" d="M180 2020h20v42h-20z"/><path fill="#212121" d="M180 2060h42v20h-42zm58 0h24v20h-24z"/><path fill="#FFF" d="M260 2060h20v20h-20zm-40 0h20v20h-20z"/><path fill="#C68A74" d="M180 2080h20v20h-20z"/><path fill="#303945" fill-opacity=".8" d="M80 5840h240v20H80z"/><path fill="#472A1E" d="M240 5839h40v21h-40zm-120 1h20v-1h20v21h-40"/><path fill="#57629D" d="M240 5821h20v-181h20v-221H141v201h-1v201h20v-181h20v-180h61v160h-1"/><path fill="#495491" d="M240 5460h20v160h-20v-160zm40-80H140v240h20v-160h20v-20h40v-20h60v-40zm-40 260h20v40h-20v-40zm-100 0h20v40h-20v-40zm100 180h40v20h-40v-20zm-100 0h20v20h-20v-20z"/><path fill="#DFA8A8" d="M140 5120v320h20v-20h40v-20h20v20h40v20h20v-320h-20v-20H160v20"/><path fill="#F5C3C3" d="M240 5139h20v281h-20v-281zm-80 0h20v281h-20v-281z"/><path fill="#FFE8E8" fill-opacity=".3" d="M140 5160h140v20H140v-20zm0 60h140v20H140v-20zm0 60h140v20H140v-20zm0 60h140v20H140v-20zm0 60h60v20h-60v-20zm80 0h60v20h-60v-20z"/><path fill="#B47878" d="M200 5160v-20h-40v-20h20v40h60v-40h20v20h-40v260h-20"/><g transform="translate(100 5140)"><mask id="b" fill="#fff"><use xlink:href="#a"/></mask><use fill="#DFA8A8" xlink:href="#a"/><path fill="#F5C3C3" d="M140-20h20v300h-20V-20zm-80 0h20v300H60V-20zM20 0h20v320H20V0zm160 0h20v320h-20V0z" mask="url(#b)"/><path fill="#DFA8A8" d="M200 180h-20v60h20M40 180H20v60h20v-20h20v-20H40" mask="url(#b)"/><path fill="#FFE8E8" fill-opacity=".3" d="M0 20h220v20H0V20zm0-60h220v20H0v-20zM0 80h220v20H0V80zm0 60h220v20H0v-20zm0 60h220v20H0v-20zm0 60h220v20H0v-20zm0 60h220v20H0v-20z" mask="url(#b)"/></g><path fill="#B47878" fill-opacity=".4" d="M280 5360H140v20h140"/><path fill="#B47878" d="M260 5340h20v20h-20zm-100 0h20v20h-20z"/><path fill="#E2B79C" d="M180 5340h20v20h-20v-20zm60 0h20v20h-20v-20z"/><path fill="#000" d="M200 5340v20h40v-20h20v-20h-40v20"/><path fill="#F7CC96" d="M218 4998l82 1v41l-25 2v40h-57"/><path fill="#C68A74" d="M200 5120v40h20v-40h1v-21h-20v-20h-21v41"/><path fill="#E2B79C" d="M218 4998h62v22h-62v-22zm42 62h20v20h-20v-20zm-61-21h21v22h-21v-22z"/><path fill="#472A1E" d="M200 5060h20v20h60v40h-60v-20h-20v-20h-20v-42h20v22m20-100h80v40h-61v-19h-19"/><path fill="#5D4439" d="M220 5000v20h-20v-40h40v20h-20"/><path fill="#212121" d="M200 5020h40v20h-40zm58 20h24v20h-24z"/><path fill="#FFF" d="M280 5040h20v20h-20zm-40 0h20v20h-20z"/><path fill="#C68A74" d="M180 5020h20v20h-20z"/><path fill="#303945" fill-opacity=".8" d="M480 2900h240v20H480z"/><path fill="#472A1E" d="M640 2899h40v21h-40zm-120 1h20v-1h20v21h-40"/><path fill="#57629D" d="M640 2881h20v-181h20v-221H541v201h-1v201h20v-181h20v-180h61v160h-1"/><path fill="#495491" d="M640 2520h20v160h-20v-160zm40-80H540v240h20v-160h20v-20h40v-20h60v-40zm-40 260h20v40h-20v-40zm-100 0h20v40h-20v-40zm100 180h40v20h-40v-20zm-100 0h20v20h-20v-20z"/><g transform="translate(680 2200)"><mask id="d" fill="#fff"><use xlink:href="#c"/></mask><use fill="#DFA8A8" xlink:href="#c"/><path fill="#FFE8E8" fill-opacity=".3" d="M-20 20h60v20h-60V20zm0 60h60v20h-60V80zm0 60h60v20h-60v-20zm0 60h60v20h-60v-20zm0 60h60v20h-60v-20z" mask="url(#d)"/><path fill="#F5C3C3" d="M0 0h20v320H0z" mask="url(#d)"/></g><path fill="#DFA8A8" d="M700 2420h-20v60h20"/><path fill="#B47878" d="M680 2460h20v20h-20z"/><path fill="#DFA8A8" d="M540 2180v320h20v-20h40v-20h20v20h40v20h20v-320h-20v-20H560v20"/><path fill="#F5C3C3" d="M640 2199h20v281h-20v-281zm-80 0h20v281h-20v-281z"/><path fill="#FFE8E8" fill-opacity=".3" d="M540 2220h140v20H540v-20zm0 60h140v20H540v-20zm0 60h140v20H540v-20zm0 60h140v20H540v-20zm0 60h60v20h-60v-20zm80 0h60v20h-60v-20z"/><path fill="#B47878" d="M600 2220v-20h-40v-20h20v40h60v-40h20v20h-40v260h-20"/><path fill="#DFA8A8" d="M500 2240h21v60h-1v240h-20"/><path fill="#F7CC96" d="M520 2540h-20v20h20z"/><path fill="#B47878" d="M520 2520h-20v20h20z"/><path fill="#F5C3C3" d="M541 2200h-21v100h21z"/><path fill="#FFE8E8" fill-opacity=".3" d="M540 2220h-20v20h20v-20zm0 60h-40v20h40v-20zm-20 60h-20v20h20v-20zm0 60h-20v20h20v-20zm0 60h-20v20h20v-20z"/><path fill="#F7CC96" d="M618 2038h62v84h-62z"/><path fill="#C68A74" d="M580 2139v41h20v40h20v-40h20v-21h-39v-20"/><path fill="#E2B79C" d="M598 2038h42v24h-42v-24zm60-18h22v20h-22v-20zm-18 58h20v22h-20v-22zm-42 2h22v42h-22v-42z"/><path fill="#472A1E" d="M600 2120h80v40h-80v-20h-20v-42h20v22m0-100v-20h80v20h-20v20h-62v-20"/><path fill="#5D4439" d="M580 2020h20v42h-20z"/><path fill="#212121" d="M580 2060h42v20h-42zm58 0h24v20h-24z"/><path fill="#FFF" d="M660 2060h20v20h-20zm-40 0h20v20h-20z"/><path fill="#C68A74" d="M580 2080h20v20h-20z"/><path fill="#303945" fill-opacity=".8" d="M480 5840h240v20H480z"/><path fill="#472A1E" d="M640 5839h40v21h-40zm-120 1h20v-1h20v21h-40"/><path fill="#57629D" d="M640 5821h20v-181h20v-221H541v201h-1v201h20v-181h20v-180h61v160h-1"/><path fill="#495491" d="M640 5460h20v160h-20v-160zm40-80H540v240h20v-160h20v-20h40v-20h60v-40zm-40 260h20v40h-20v-40zm-100 0h20v40h-20v-40zm100 180h40v20h-40v-20zm-100 0h20v20h-20v-20z"/><path fill="#DFA8A8" d="M540 5120v320h20v-20h40v-20h20v20h40v20h20v-320h-20v-20H560v20"/><path fill="#F5C3C3" d="M640 5139h20v281h-20v-281zm-80 0h20v281h-20v-281z"/><path fill="#FFE8E8" fill-opacity=".3" d="M540 5160h140v20H540v-20zm0 60h140v20H540v-20zm0 60h140v20H540v-20zm0 60h140v20H540v-20zm0 60h60v20h-60v-20zm80 0h60v20h-60v-20z"/><path fill="#B47878" d="M600 5160v-20h-40v-20h20v40h60v-40h20v20h-40v260h-20"/><path fill="#B47878" fill-opacity=".4" d="M680 5380H540v20h140"/><g transform="translate(500 5140)"><mask id="f" fill="#fff"><use xlink:href="#e"/></mask><use fill="#DFA8A8" xlink:href="#e"/><path fill="#F5C3C3" d="M140-20h20v300h-20V-20zm-80 0h20v300H60V-20zM20 0h20v320H20V0zm160 0h20v320h-20V0z" mask="url(#f)"/><path fill="#DFA8A8" d="M200 180h-20v60h20M80 220H40v-40H20v60h60" mask="url(#f)"/><path fill="#FFE8E8" fill-opacity=".3" d="M0 20h220v20H0V20zm0-60h220v20H0v-20zM0 80h220v20H0V80zm0 60h220v20H0v-20zm0 60h220v20H0v-20zm0 60h220v20H0v-20zm0 60h220v20H0v-20z" mask="url(#f)"/></g><path fill="#E2B79C" d="M640 5360h20v20h-20v-20zm-60 0h20v20h-20v-20z"/><path fill="#B47878" d="M660 5360h20v20h-20zm-100 0h20v20h-20z"/><path fill="#000" d="M600 5320h40v60h-40z"/><path fill="#F7CC96" d="M618 4998l82 1v41l-25 2v40h-57"/><path fill="#C68A74" d="M600 5120v40h20v-40h1v-21h-20v-20h-21v41"/><path fill="#E2B79C" d="M618 4998h62v22h-62v-22zm42 62h20v20h-20v-20zm-61-21h21v22h-21v-22z"/><path fill="#472A1E" d="M600 5060h20v20h60v40h-60v-20h-20v-20h-20v-42h20v22m20-100h80v40h-61v-19h-19"/><path fill="#5D4439" d="M620 5000v20h-20v-40h40v20h-20"/><path fill="#212121" d="M600 5020h40v20h-40zm58 20h24v20h-24z"/><path fill="#FFF" d="M680 5040h20v20h-20zm-40 0h20v20h-20z"/><path fill="#C68A74" d="M580 5020h20v20h-20z"/><path fill="#303945" fill-opacity=".8" d="M880 2900h240v20H880z"/><path fill="#472A1E" d="M1040 2899h40v21h-40zm-120 1h20v-1h20v21h-40"/><path fill="#57629D" d="M1040 2881h20v-181h20v-221H941v201h-1v201h20v-181h20v-180h61v160h-1"/><path fill="#495491" d="M1040 2520h20v160h-20v-160zm40-80H940v240h20v-160h20v-20h40v-20h60v-40zm-40 260h20v40h-20v-40zm-100 0h20v40h-20v-40zm100 180h40v20h-40v-20zm-100 0h20v20h-20v-20z"/><g transform="translate(1080 2200)"><mask id="h" fill="#fff"><use xlink:href="#g"/></mask><use fill="#DFA8A8" xlink:href="#g"/><path fill="#FFE8E8" fill-opacity=".3" d="M-20 20h60v20h-60V20zm0 60h60v20h-60V80zm0 60h60v20h-60v-20zm0 60h60v20h-60v-20zm0 60h60v20h-60v-20z" mask="url(#h)"/><path fill="#F5C3C3" d="M0 0h20v320H0z" mask="url(#h)"/></g><path fill="#DFA8A8" d="M1100 2440h-20v60h20m-160-320v320h20v-20h40v-20h20v20h40v20h20v-320h-20v-20H960v20"/><path fill="#F5C3C3" d="M1040 2199h20v281h-20v-281zm-80 0h20v281h-20v-281z"/><path fill="#FFE8E8" fill-opacity=".3" d="M940 2220h140v20H940v-20zm0 60h140v20H940v-20zm0 60h140v20H940v-20zm0 60h140v20H940v-20zm0 60h60v20h-60v-20zm80 0h60v20h-60v-20z"/><path fill="#B47878" d="M1000 2220v-20h-40v-20h20v40h60v-40h20v20h-40v260h-20"/><path fill="#DFA8A8" d="M900 2240h21v60h-1v240h-20"/><path fill="#F7CC96" d="M920 2540h-20v20h20z"/><path fill="#B47878" d="M920 2520h-20v20h20z"/><path fill="#F5C3C3" d="M941 2200h-21v100h21z"/><path fill="#FFE8E8" fill-opacity=".3" d="M940 2220h-20v20h20v-20zm0 60h-40v20h40v-20zm-20 60h-20v20h20v-20zm0 60h-20v20h20v-20zm0 60h-20v20h20v-20z"/><path fill="#F7CC96" d="M1018 2058l82 1v41l-25 2v40h-57"/><path fill="#C68A74" d="M1000 2180v40h20v-40h1v-21h-20v-20h-21v41"/><path fill="#E2B79C" d="M1018 2058h62v22h-62v-22zm42 62h20v20h-20v-20zm-61-21h21v22h-21v-22z"/><path fill="#472A1E" d="M1000 2120h20v20h60v40h-60v-20h-20v-20h-20v-42h20v22m20-100h80v40h-61v-19h-19"/><path fill="#5D4439" d="M1020 2060v20h-20v-40h40v20h-20"/><path fill="#212121" d="M1000 2080h40v20h-40zm58 20h24v20h-24z"/><path fill="#FFF" d="M1080 2100h20v20h-20zm-40 0h20v20h-20z"/><path fill="#C68A74" d="M980 2080h20v20h-20z"/><path fill="#303945" fill-opacity=".8" d="M880 5840h240v20H880z"/><path fill="#472A1E" d="M1040 5839h40v21h-40zm-120 1h20v-1h20v21h-40"/><path fill="#57629D" d="M1040 5821h20v-181h20v-221H941v201h-1v201h20v-181h20v-180h61v160h-1"/><path fill="#495491" d="M1040 5460h20v160h-20v-160zm40-80H940v240h20v-160h20v-20h40v-20h60v-40zm-40 260h20v40h-20v-40zm-100 0h20v40h-20v-40zm100 180h40v20h-40v-20zm-100 0h20v20h-20v-20z"/><path fill="#DFA8A8" d="M940 5120v320h20v-20h40v-20h20v20h40v20h20v-320h-20v-20H960v20"/><path fill="#F5C3C3" d="M1040 5139h20v281h-20v-281zm-80 0h20v281h-20v-281z"/><path fill="#FFE8E8" fill-opacity=".3" d="M940 5160h140v20H940v-20zm0 60h140v20H940v-20zm0 60h140v20H940v-20zm0 60h140v20H940v-20zm0 60h60v20h-60v-20zm80 0h60v20h-60v-20z"/><path fill="#B47878" d="M1000 5160v-20h-40v-20h20v40h60v-40h20v20h-40v260h-20"/><path fill="#B47878" fill-opacity=".4" d="M980 5400h-40v20h40m100-20h-40v20h40"/><g transform="translate(900 5140)"><mask id="j" fill="#fff"><use xlink:href="#i"/></mask><use fill="#DFA8A8" xlink:href="#i"/><path fill="#F5C3C3" d="M140-20h20v300h-20V-20zm-80 0h20v300H60V-20zM20 0h20v320H20V0zm160 0h20v320h-20V0z" mask="url(#j)"/><path fill="#DFA8A8" d="M40 180H20v60h20m160-60h-20v60h20" mask="url(#j)"/><path fill="#FFE8E8" fill-opacity=".3" d="M0 20h220v20H0V20zm0-60h220v20H0v-20zM0 80h220v20H0V80zm0 60h220v20H0v-20zm0 60h220v20H0v-20zm0 60h220v20H0v-20zm0 60h220v20H0v-20z" mask="url(#j)"/></g><path fill="#E2B79C" d="M1060 5380h20v20h-20v-20zm-100 0h20v20h-20v-20z"/><path fill="#B47878" d="M1080 5360h20v20h-20zm-140 20h20v20h-20z"/><path fill="#F7CC96" d="M1018 4998l82 1v41l-25 2v40h-57"/><path fill="#C68A74" d="M1000 5120v40h20v-40h1v-21h-20v-20h-21v41"/><path fill="#E2B79C" d="M1018 4998h62v22h-62v-22zm42 62h20v20h-20v-20zm-61-21h21v22h-21v-22z"/><path fill="#472A1E" d="M1000 5060h20v20h60v40h-60v-20h-20v-20h-20v-42h20v22m20-100h80v40h-61v-19h-19"/><path fill="#5D4439" d="M1020 5000v20h-20v-40h40v20h-20"/><path fill="#212121" d="M1000 5020h40v20h-40zm58 20h24v20h-24z"/><path fill="#FFF" d="M1080 5040h20v20h-20zm-40 0h20v20h-20z"/><path fill="#C68A74" d="M980 5020h20v20h-20z"/><path fill="#000" d="M1040 5360h20v40h-20z"/><path fill="#303945" fill-opacity=".8" d="M1280 2900h240v20h-240z"/><path fill="#472A1E" d="M1440 2899h40v21h-40zm-120 1h20v-1h20v21h-40"/><path fill="#57629D" d="M1440 2881h20v-181h20v-221h-139v201h-1v201h20v-181h20v-180h61v160h-1"/><path fill="#495491" d="M1440 2520h20v160h-20v-160zm40-80h-140v240h20v-160h20v-20h40v-20h60v-40zm-40 260h20v40h-20v-40zm-100 0h20v40h-20v-40zm100 180h40v20h-40v-20zm-100 0h20v20h-20v-20z"/><path fill="#DFA8A8" d="M1340 2180v320h20v-20h40v-20h20v20h40v20h20v-320h-20v-20h-100v20"/><path fill="#F5C3C3" d="M1440 2199h20v281h-20v-281zm-80 0h20v281h-20v-281z"/><path fill="#FFE8E8" fill-opacity=".3" d="M1340 2220h140v20h-140v-20zm0 60h140v20h-140v-20zm0 60h140v20h-140v-20zm0 60h140v20h-140v-20zm0 60h60v20h-60v-20zm80 0h60v20h-60v-20z"/><path fill="#B47878" d="M1400 2220v-20h-40v-20h20v40h60v-40h20v20h-40v260h-20"/><g transform="translate(1300 2200)"><mask id="l" fill="#fff"><use xlink:href="#k"/></mask><use fill="#DFA8A8" xlink:href="#k"/><path fill="#F5C3C3" d="M140-20h20v300h-20V-20zm-80 0h20v300H60V-20zM20 0h20v320H20V0zm160 0h20v320h-20V0z" mask="url(#l)"/><path fill="#FFE8E8" fill-opacity=".3" d="M0 20h220v20H0V20zm0-60h220v20H0v-20zM0 80h220v20H0V80zm0 60h220v20H0v-20zm0 60h220v20H0v-20zm0 60h220v20H0v-20zm0 60h220v20H0v-20z" mask="url(#l)"/></g><path fill="#DFA8A8" d="M1500 2420h-20v60h20"/><path fill="#B47878" d="M1480 2460h20v20h-20z"/><path fill="#000" d="M1460 2480h20v20h-20z"/><path fill="#E2B79C" d="M1340 2500h20v20h-20z"/><path fill="#F7CC96" d="M1418 2058l82 1v41l-25 2v40h-57"/><path fill="#C68A74" d="M1400 2180v40h20v-40h1v-21h-20v-20h-21v41"/><path fill="#E2B79C" d="M1418 2058h62v22h-62v-22zm42 62h20v20h-20v-20zm-61-21h21v22h-21v-22z"/><path fill="#472A1E" d="M1400 2120h20v20h60v40h-60v-20h-20v-20h-20v-42h20v22m20-100h80v40h-61v-19h-19"/><path fill="#5D4439" d="M1420 2060v20h-20v-40h40v20h-20"/><path fill="#212121" d="M1400 2080h40v20h-40zm58 20h24v20h-24z"/><path fill="#FFF" d="M1480 2100h20v20h-20zm-40 0h20v20h-20z"/><path fill="#C68A74" d="M1380 2080h20v20h-20z"/><path fill="#DFA8A8" d="M1360 2460h-20v40h20"/><path fill="#B47878" d="M1340 2480h20v20h-20z"/><path fill="#303945" fill-opacity=".8" d="M1280 5840h240v20h-240z"/><path fill="#472A1E" d="M1440 5839h40v21h-40zm-120 1h20v-1h20v21h-40"/><path fill="#57629D" d="M1440 5821h20v-181h20v-221h-139v201h-1v201h20v-181h20v-180h61v160h-1"/><path fill="#495491" d="M1440 5460h20v160h-20v-160zm40-80h-140v240h20v-160h20v-20h40v-20h60v-40zm-40 260h20v40h-20v-40zm-100 0h20v40h-20v-40zm100 180h40v20h-40v-20zm-100 0h20v20h-20v-20z"/><path fill="#DFA8A8" d="M1340 5120v320h20v-20h40v-20h20v20h40v20h20v-320h-20v-20h-100v20"/><path fill="#F5C3C3" d="M1440 5139h20v281h-20v-281zm-80 0h20v281h-20v-281z"/><path fill="#FFE8E8" fill-opacity=".3" d="M1340 5160h140v20h-140v-20zm0 60h140v20h-140v-20zm0 60h140v20h-140v-20zm0 60h140v20h-140v-20zm0 60h60v20h-60v-20zm80 0h60v20h-60v-20z"/><path fill="#B47878" d="M1400 5160v-20h-40v-20h20v40h60v-40h20v20h-40v260h-20"/><g transform="translate(1300 5140)"><mask id="n" fill="#fff"><use xlink:href="#m"/></mask><use fill="#DFA8A8" xlink:href="#m"/><path fill="#F5C3C3" d="M140-20h20v300h-20V-20zm-80 0h20v300H60V-20zM20 0h20v320H20V0zm160 0h20v320h-20V0z" mask="url(#n)"/><path fill="#FFE8E8" fill-opacity=".3" d="M0 20h220v20H0V20zm0-60h220v20H0v-20zM0 80h220v20H0V80zm0 60h220v20H0v-20zm0 60h220v20H0v-20zm0 60h220v20H0v-20zm0 60h220v20H0v-20z" mask="url(#n)"/></g><path fill="#DFA8A8" d="M1500 5360h-20v60h20"/><path fill="#B47878" d="M1480 5400h20v20h-20z"/><path fill="#000" d="M1460 5420h20v20h-20z"/><path fill="#E2B79C" d="M1340 5440h20v20h-20z"/><path fill="#F7CC96" d="M1418 4998l82 1v41l-25 2v40h-57"/><path fill="#C68A74" d="M1400 5120v40h20v-40h1v-21h-20v-20h-21v41"/><path fill="#E2B79C" d="M1418 4998h62v22h-62v-22zm42 62h20v20h-20v-20zm-61-21h21v22h-21v-22z"/><path fill="#472A1E" d="M1400 5060h20v20h60v40h-60v-20h-20v-20h-20v-42h20v22m20-100h80v40h-61v-19h-19"/><path fill="#5D4439" d="M1420 5000v20h-20v-40h40v20h-20"/><path fill="#212121" d="M1400 5020h40v20h-40zm58 20h24v20h-24z"/><path fill="#FFF" d="M1480 5040h20v20h-20zm-40 0h20v20h-20z"/><path fill="#C68A74" d="M1380 5020h20v20h-20z"/><path fill="#DFA8A8" d="M1360 5400h-20v40h20"/><path fill="#B47878" d="M1340 5420h20v20h-20z"/><path fill="#303945" fill-opacity=".8" d="M1680 2900h240v20h-240z"/><path fill="#472A1E" d="M1840 2899h40v21h-40zm-120 1h20v-1h20v21h-40"/><path fill="#57629D" d="M1840 2881h20v-181h20v-221h-139v201h-1v201h20v-181h20v-180h61v160h-1"/><path fill="#495491" d="M1840 2520h20v160h-20v-160zm40-80h-140v240h20v-160h20v-20h40v-20h60v-40zm-40 260h20v40h-20v-40zm-100 0h20v40h-20v-40zm100 180h40v20h-40v-20zm-100 0h20v20h-20v-20z"/><path fill="#DFA8A8" d="M1740 2180v320h20v-20h40v-20h20v20h40v20h20v-320h-20v-20h-100v20"/><path fill="#F5C3C3" d="M1840 2199h20v281h-20v-281zm-80 0h20v281h-20v-281z"/><path fill="#FFE8E8" fill-opacity=".3" d="M1740 2220h140v20h-140v-20zm0 60h140v20h-140v-20zm0 60h140v20h-140v-20zm0 60h140v20h-140v-20zm0 60h60v20h-60v-20zm80 0h60v20h-60v-20z"/><path fill="#B47878" d="M1800 2220v-20h-40v-20h20v40h60v-40h20v20h-40v260h-20"/><path fill="#B47878" fill-opacity=".4" d="M1780 2460h-40v20h40m100-20h-40v20h40"/><g transform="translate(1700 2200)"><mask id="p" fill="#fff"><use xlink:href="#o"/></mask><use fill="#DFA8A8" xlink:href="#o"/><path fill="#F5C3C3" d="M140-20h20v300h-20V-20zm-80 0h20v300H60V-20zM20 0h20v320H20V0zm160 0h20v320h-20V0z" mask="url(#p)"/><path fill="#DFA8A8" d="M40 180H20v60h20m160-60h-20v60h20" mask="url(#p)"/><path fill="#FFE8E8" fill-opacity=".3" d="M0 20h220v20H0V20zm0-60h220v20H0v-20zM0 80h220v20H0V80zm0 60h220v20H0v-20zm0 60h220v20H0v-20zm0 60h220v20H0v-20zm0 60h220v20H0v-20z" mask="url(#p)"/></g><path fill="#E2B79C" d="M1860 2440h20v20h-20v-20zm-100 0h20v20h-20v-20z"/><path fill="#B47878" d="M1880 2420h20v20h-20zm-140 20h20v20h-20z"/><path fill="#F7CC96" d="M1818 2058l82 1v41l-25 2v40h-57"/><path fill="#C68A74" d="M1800 2180v40h20v-40h1v-21h-20v-20h-21v41"/><path fill="#E2B79C" d="M1818 2058h62v22h-62v-22zm42 62h20v20h-20v-20zm-61-21h21v22h-21v-22z"/><path fill="#472A1E" d="M1800 2120h20v20h60v40h-60v-20h-20v-20h-20v-42h20v22m20-100h80v40h-61v-19h-19"/><path fill="#5D4439" d="M1820 2060v20h-20v-40h40v20h-20"/><path fill="#212121" d="M1800 2080h40v20h-40zm58 20h24v20h-24z"/><path fill="#FFF" d="M1880 2100h20v20h-20zm-40 0h20v20h-20z"/><path fill="#C68A74" d="M1780 2080h20v20h-20z"/><path fill="#000" d="M1840 2420h20v40h-20z"/><path fill="#303945" fill-opacity=".8" d="M1680 5840h240v20h-240z"/><path fill="#472A1E" d="M1840 5839h40v21h-40zm-120 1h20v-1h20v21h-40"/><path fill="#57629D" d="M1840 5821h20v-181h20v-221h-139v201h-1v201h20v-181h20v-180h61v160h-1"/><path fill="#495491" d="M1840 5460h20v160h-20v-160zm40-80h-140v240h20v-160h20v-20h40v-20h60v-40zm-40 260h20v40h-20v-40zm-100 0h20v40h-20v-40zm100 180h40v20h-40v-20zm-100 0h20v20h-20v-20z"/><g transform="translate(1880 5140)"><mask id="r" fill="#fff"><use xlink:href="#q"/></mask><use fill="#DFA8A8" xlink:href="#q"/><path fill="#FFE8E8" fill-opacity=".3" d="M-20 20h60v20h-60V20zm0 60h60v20h-60V80zm0 60h60v20h-60v-20zm0 60h60v20h-60v-20zm0 60h60v20h-60v-20z" mask="url(#r)"/><path fill="#F5C3C3" d="M0 0h20v320H0z" mask="url(#r)"/></g><path fill="#DFA8A8" d="M1900 5380h-20v60h20m-160-320v320h20v-20h40v-20h20v20h40v20h20v-320h-20v-20h-100v20"/><path fill="#F5C3C3" d="M1840 5139h20v281h-20v-281zm-80 0h20v281h-20v-281z"/><path fill="#FFE8E8" fill-opacity=".3" d="M1740 5160h140v20h-140v-20zm0 60h140v20h-140v-20zm0 60h140v20h-140v-20zm0 60h140v20h-140v-20zm0 60h60v20h-60v-20zm80 0h60v20h-60v-20z"/><path fill="#B47878" d="M1800 5160v-20h-40v-20h20v40h60v-40h20v20h-40v260h-20"/><path fill="#DFA8A8" d="M1700 5180h21v60h-1v240h-20"/><path fill="#F7CC96" d="M1720 5480h-20v20h20z"/><path fill="#B47878" d="M1720 5460h-20v20h20z"/><path fill="#F5C3C3" d="M1741 5140h-21v100h21z"/><path fill="#FFE8E8" fill-opacity=".3" d="M1740 5160h-20v20h20v-20zm0 60h-40v20h40v-20zm-20 60h-20v20h20v-20zm0 60h-20v20h20v-20zm0 60h-20v20h20v-20z"/><path fill="#F7CC96" d="M1818 4998l82 1v41l-25 2v40h-57"/><path fill="#C68A74" d="M1800 5120v40h20v-40h1v-21h-20v-20h-21v41"/><path fill="#E2B79C" d="M1818 4998h62v22h-62v-22zm42 62h20v20h-20v-20zm-61-21h21v22h-21v-22z"/><path fill="#472A1E" d="M1800 5060h20v20h60v40h-60v-20h-20v-20h-20v-42h20v22m20-100h80v40h-61v-19h-19"/><path fill="#5D4439" d="M1820 5000v20h-20v-40h40v20h-20"/><path fill="#212121" d="M1800 5020h40v20h-40zm58 20h24v20h-24z"/><path fill="#FFF" d="M1880 5040h20v20h-20zm-40 0h20v20h-20z"/><path fill="#C68A74" d="M1780 5020h20v20h-20z"/><path fill="#303945" fill-opacity=".8" d="M2080 2900h240v20h-240z"/><path fill="#472A1E" d="M2240 2899h40v21h-40zm-120 1h20v-1h20v21h-40"/><path fill="#57629D" d="M2240 2881h20v-181h20v-221h-139v201h-1v201h20v-181h20v-180h61v160h-1"/><path fill="#495491" d="M2240 2520h20v160h-20v-160zm40-80h-140v240h20v-160h20v-20h40v-20h60v-40zm-40 260h20v40h-20v-40zm-100 0h20v40h-20v-40zm100 180h40v20h-40v-20zm-100 0h20v20h-20v-20z"/><path fill="#DFA8A8" d="M2140 2180v320h20v-20h40v-20h20v20h40v20h20v-320h-20v-20h-100v20"/><path fill="#F5C3C3" d="M2240 2199h20v281h-20v-281zm-80 0h20v281h-20v-281z"/><path fill="#FFE8E8" fill-opacity=".3" d="M2140 2220h140v20h-140v-20zm0 60h140v20h-140v-20zm0 60h140v20h-140v-20zm0 60h140v20h-140v-20zm0 60h60v20h-60v-20zm80 0h60v20h-60v-20z"/><path fill="#B47878" d="M2200 2220v-20h-40v-20h20v40h60v-40h20v20h-40v260h-20"/><path fill="#B47878" fill-opacity=".4" d="M2280 2440h-140v20h140"/><g transform="translate(2100 2200)"><mask id="t" fill="#fff"><use xlink:href="#s"/></mask><use fill="#DFA8A8" xlink:href="#s"/><path fill="#F5C3C3" d="M140-20h20v300h-20V-20zm-80 0h20v300H60V-20zM20 0h20v320H20V0zm160 0h20v320h-20V0z" mask="url(#t)"/><path fill="#DFA8A8" d="M200 180h-20v60h20M80 220H40v-40H20v60h60" mask="url(#t)"/><path fill="#FFE8E8" fill-opacity=".3" d="M0 20h220v20H0V20zm0-60h220v20H0v-20zM0 80h220v20H0V80zm0 60h220v20H0v-20zm0 60h220v20H0v-20zm0 60h220v20H0v-20zm0 60h220v20H0v-20z" mask="url(#t)"/></g><path fill="#E2B79C" d="M2240 2420h20v20h-20v-20zm-60 0h20v20h-20v-20z"/><path fill="#B47878" d="M2260 2420h20v20h-20zm-100 0h20v20h-20z"/><path fill="#000" d="M2200 2380h40v60h-40z"/><path fill="#F7CC96" d="M2218 2058l82 1v41l-25 2v40h-57"/><path fill="#C68A74" d="M2200 2180v40h20v-40h1v-21h-20v-20h-21v41"/><path fill="#E2B79C" d="M2218 2058h62v22h-62v-22zm42 62h20v20h-20v-20zm-61-21h21v22h-21v-22z"/><path fill="#472A1E" d="M2200 2120h20v20h60v40h-60v-20h-20v-20h-20v-42h20v22m20-100h80v40h-61v-19h-19"/><path fill="#5D4439" d="M2220 2060v20h-20v-40h40v20h-20"/><path fill="#212121" d="M2200 2080h40v20h-40zm58 20h24v20h-24z"/><path fill="#FFF" d="M2280 2100h20v20h-20zm-40 0h20v20h-20z"/><path fill="#C68A74" d="M2180 2080h20v20h-20z"/><path fill="#303945" fill-opacity=".8" d="M2080 5840h240v20h-240z"/><path fill="#472A1E" d="M2240 5839h40v21h-40zm-120 1h20v-1h20v21h-40"/><path fill="#57629D" d="M2240 5821h20v-181h20v-221h-139v201h-1v201h20v-181h20v-180h61v160h-1"/><path fill="#495491" d="M2240 5460h20v160h-20v-160zm40-80h-140v240h20v-160h20v-20h40v-20h60v-40zm-40 260h20v40h-20v-40zm-100 0h20v40h-20v-40zm100 180h40v20h-40v-20zm-100 0h20v20h-20v-20z"/><g transform="translate(2280 5140)"><mask id="v" fill="#fff"><use xlink:href="#u"/></mask><use fill="#DFA8A8" xlink:href="#u"/><path fill="#FFE8E8" fill-opacity=".3" d="M-20 20h60v20h-60V20zm0 60h60v20h-60V80zm0 60h60v20h-60v-20zm0 60h60v20h-60v-20zm0 60h60v20h-60v-20z" mask="url(#v)"/><path fill="#F5C3C3" d="M0 0h20v320H0z" mask="url(#v)"/></g><path fill="#DFA8A8" d="M2300 5360h-20v60h20"/><path fill="#B47878" d="M2280 5400h20v20h-20z"/><path fill="#DFA8A8" d="M2140 5120v320h20v-20h40v-20h20v20h40v20h20v-320h-20v-20h-100v20"/><path fill="#F5C3C3" d="M2240 5139h20v281h-20v-281zm-80 0h20v281h-20v-281z"/><path fill="#FFE8E8" fill-opacity=".3" d="M2140 5160h140v20h-140v-20zm0 60h140v20h-140v-20zm0 60h140v20h-140v-20zm0 60h140v20h-140v-20zm0 60h60v20h-60v-20zm80 0h60v20h-60v-20z"/><path fill="#B47878" d="M2200 5160v-20h-40v-20h20v40h60v-40h20v20h-40v260h-20"/><path fill="#DFA8A8" d="M2100 5180h21v60h-1v240h-20"/><path fill="#F7CC96" d="M2120 5480h-20v20h20z"/><path fill="#B47878" d="M2120 5460h-20v20h20z"/><path fill="#F5C3C3" d="M2141 5140h-21v100h21z"/><path fill="#FFE8E8" fill-opacity=".3" d="M2140 5160h-20v20h20v-20zm0 60h-40v20h40v-20zm-20 60h-20v20h20v-20zm0 60h-20v20h20v-20zm0 60h-20v20h20v-20z"/><path fill="#F7CC96" d="M2218 4978h62v84h-62z"/><path fill="#C68A74" d="M2180 5079v41h20v40h20v-40h20v-21h-39v-20"/><path fill="#E2B79C" d="M2198 4978h42v24h-42v-24zm60-18h22v20h-22v-20zm-18 58h20v22h-20v-22zm-42 2h22v42h-22v-42z"/><path fill="#472A1E" d="M2200 5060h80v40h-80v-20h-20v-42h20v22m0-100v-20h80v20h-20v20h-62v-20"/><path fill="#5D4439" d="M2180 4960h20v42h-20z"/><path fill="#212121" d="M2180 5000h42v20h-42zm58 0h24v20h-24z"/><path fill="#FFF" d="M2260 5000h20v20h-20zm-40 0h20v20h-20z"/><path fill="#C68A74" d="M2180 5020h20v20h-20z"/><path fill="#303945" fill-opacity=".8" d="M2480 2900h240v20h-240z"/><path fill="#472A1E" d="M2640 2899h40v21h-40zm-120 1h20v-1h20v21h-40"/><path fill="#57629D" d="M2640 2881h20v-181h20v-221h-139v201h-1v201h20v-181h20v-180h61v160h-1"/><path fill="#495491" d="M2640 2520h20v160h-20v-160zm40-80h-140v240h20v-160h20v-20h40v-20h60v-40zm-40 260h20v40h-20v-40zm-100 0h20v40h-20v-40zm100 180h40v20h-40v-20zm-100 0h20v20h-20v-20z"/><path fill="#DFA8A8" d="M2540 2180v320h20v-20h40v-20h20v20h40v20h20v-320h-20v-20h-100v20"/><path fill="#F5C3C3" d="M2640 2199h20v281h-20v-281zm-80 0h20v281h-20v-281z"/><path fill="#FFE8E8" fill-opacity=".3" d="M2540 2220h140v20h-140v-20zm0 60h140v20h-140v-20zm0 60h140v20h-140v-20zm0 60h140v20h-140v-20zm0 60h60v20h-60v-20zm80 0h60v20h-60v-20z"/><path fill="#B47878" d="M2600 2220v-20h-40v-20h20v40h60v-40h20v20h-40v260h-20"/><g transform="translate(2500 2200)"><mask id="x" fill="#fff"><use xlink:href="#w"/></mask><use fill="#DFA8A8" xlink:href="#w"/><path fill="#F5C3C3" d="M140-20h20v300h-20V-20zm-80 0h20v300H60V-20zM20 0h20v320H20V0zm160 0h20v320h-20V0z" mask="url(#x)"/><path fill="#DFA8A8" d="M200 180h-20v60h20M40 180H20v60h20v-20h20v-20H40" mask="url(#x)"/><path fill="#FFE8E8" fill-opacity=".3" d="M0 20h220v20H0V20zm0-60h220v20H0v-20zM0 80h220v20H0V80zm0 60h220v20H0v-20zm0 60h220v20H0v-20zm0 60h220v20H0v-20zm0 60h220v20H0v-20z" mask="url(#x)"/></g><path fill="#B47878" fill-opacity=".4" d="M2680 2420h-140v20h140"/><path fill="#B47878" d="M2660 2400h20v20h-20zm-100 0h20v20h-20z"/><path fill="#E2B79C" d="M2580 2400h20v20h-20v-20zm60 0h20v20h-20v-20z"/><path fill="#000" d="M2600 2400v20h40v-20h20v-20h-40v20"/><path fill="#F7CC96" d="M2618 2058l82 1v41l-25 2v40h-57"/><path fill="#C68A74" d="M2600 2180v40h20v-40h1v-21h-20v-20h-21v41"/><path fill="#E2B79C" d="M2618 2058h62v22h-62v-22zm42 62h20v20h-20v-20zm-61-21h21v22h-21v-22z"/><path fill="#472A1E" d="M2600 2120h20v20h60v40h-60v-20h-20v-20h-20v-42h20v22m20-100h80v40h-61v-19h-19"/><path fill="#5D4439" d="M2620 2060v20h-20v-40h40v20h-20"/><path fill="#212121" d="M2600 2080h40v20h-40zm58 20h24v20h-24z"/><path fill="#FFF" d="M2680 2100h20v20h-20zm-40 0h20v20h-20z"/><path fill="#C68A74" d="M2580 2080h20v20h-20z"/><path fill="#303945" fill-opacity=".8" d="M2480 5840h240v20h-240z"/><path fill="#472A1E" d="M2640 5839h40v21h-40zm-120 1h20v-1h20v21h-40"/><path fill="#57629D" d="M2640 5821h20v-181h20v-221h-139v201h-1v201h20v-181h20v-180h61v160h-1"/><path fill="#495491" d="M2640 5460h20v160h-20v-160zm40-80h-140v240h20v-160h20v-20h40v-20h60v-40zm-40 260h20v40h-20v-40zm-100 0h20v40h-20v-40zm100 180h40v20h-40v-20zm-100 0h20v20h-20v-20z"/><path fill="#DFA8A8" d="M2540 5120v320h20v-20h40v-20h20v20h40v20h20v-320h-20v-20h-100v20"/><path fill="#F5C3C3" d="M2640 5139h20v281h-20v-281zm-80 0h20v281h-20v-281z"/><path fill="#FFE8E8" fill-opacity=".3" d="M2540 5160h140v20h-140v-20zm0 60h140v20h-140v-20zm0 60h140v20h-140v-20zm0 60h140v20h-140v-20zm0 60h60v20h-60v-20zm80 0h60v20h-60v-20z"/><path fill="#B47878" d="M2600 5160v-20h-40v-20h20v40h60v-40h20v20h-40v260h-20"/><path fill="#DFA8A8" d="M2720 5180h-21v60h1v240h20"/><path fill="#F7CC96" d="M2700 5480h20v20h-20z"/><path fill="#B47878" d="M2700 5460h20v20h-20z"/><path fill="#F5C3C3" d="M2679 5140h21v100h-21z"/><path fill="#FFE8E8" fill-opacity=".3" d="M2680 5160h20v20h-20v-20zm0 60h40v20h-40v-20zm20 60h20v20h-20v-20zm0 60h20v20h-20v-20zm0 60h20v20h-20v-20z"/><path fill="#DFA8A8" d="M2500 5180h21v60h-1v240h-20"/><path fill="#F7CC96" d="M2520 5480h-20v20h20z"/><path fill="#B47878" d="M2520 5460h-20v20h20z"/><path fill="#F5C3C3" d="M2541 5140h-21v100h21z"/><path fill="#FFE8E8" fill-opacity=".3" d="M2540 5160h-20v20h20v-20zm0 60h-40v20h40v-20zm-20 60h-20v20h20v-20zm0 60h-20v20h20v-20zm0 60h-20v20h20v-20z"/><path fill="#F7CC96" d="M2618 4978h62v84h-62z"/><path fill="#C68A74" d="M2580 5079v41h20v40h20v-40h20v-21h-39v-20"/><path fill="#E2B79C" d="M2598 4978h42v24h-42v-24zm60-18h22v20h-22v-20zm-18 58h20v22h-20v-22zm-42 2h22v42h-22v-42z"/><path fill="#472A1E" d="M2600 5060h80v40h-80v-20h-20v-42h20v22m0-100v-20h80v20h-20v20h-62v-20"/><path fill="#5D4439" d="M2580 4960h20v42h-20z"/><path fill="#212121" d="M2580 5000h42v20h-42zm58 0h24v20h-24z"/><path fill="#FFF" d="M2660 5000h20v20h-20zm-40 0h20v20h-20z"/><path fill="#C68A74" d="M2580 5020h20v20h-20z"/><path fill="#303945" fill-opacity=".8" d="M80 4860h240v20H80z"/><path fill="#472A1E" d="M240 4859h40v21h-40zm-120 1h20v-1h20v21h-40"/><path fill="#57629D" d="M240 4841h20v-181h20v-221H141v201h-1v201h20v-181h20v-180h61v160h-1"/><path fill="#495491" d="M240 4480h20v160h-20v-160zm40-80H140v240h20v-160h20v-20h40v-20h60v-40zm-40 260h20v40h-20v-40zm-100 0h20v40h-20v-40zm100 180h40v20h-40v-20zm-100 0h20v20h-20v-20z"/><path fill="#DFA8A8" d="M140 4140v320h20v-20h40v-20h20v20h40v20h20v-320h-20v-20H160v20"/><path fill="#F5C3C3" d="M240 4159h20v281h-20v-281zm-80 0h20v281h-20v-281z"/><path fill="#FFE8E8" fill-opacity=".3" d="M140 4180h140v20H140v-20zm0 60h140v20H140v-20zm0 60h140v20H140v-20zm0 60h140v20H140v-20zm0 60h60v20h-60v-20zm80 0h60v20h-60v-20z"/><path fill="#B47878" d="M200 4180v-20h-40v-20h20v40h60v-40h20v20h-40v260h-20"/><g transform="translate(100 4160)"><mask id="z" fill="#fff"><use xlink:href="#y"/></mask><use fill="#DFA8A8" xlink:href="#y"/><path fill="#F5C3C3" d="M140-20h20v300h-20V-20zm-80 0h20v300H60V-20zM20 0h20v320H20V0zm160 0h20v320h-20V0z" mask="url(#z)"/><path fill="#DFA8A8" d="M200 180h-20v60h20M40 180H20v60h20v-20h20v-20H40" mask="url(#z)"/><path fill="#FFE8E8" fill-opacity=".3" d="M0 20h220v20H0V20zm0-60h220v20H0v-20zM0 80h220v20H0V80zm0 60h220v20H0v-20zm0 60h220v20H0v-20zm0 60h220v20H0v-20zm0 60h220v20H0v-20z" mask="url(#z)"/></g><path fill="#F7CC96" d="M218 4018l82 1v41l-25 2v40h-57"/><path fill="#C68A74" d="M200 4140v40h20v-40h1v-21h-20v-20h-21v41"/><path fill="#E2B79C" d="M218 4018h62v22h-62v-22zm42 62h20v20h-20v-20zm-61-21h21v22h-21v-22z"/><path fill="#472A1E" d="M200 4080h20v20h60v40h-60v-20h-20v-20h-20v-42h20v22m20-100h80v40h-61v-19h-19"/><path fill="#5D4439" d="M220 4020v20h-20v-40h40v20h-20"/><path fill="#212121" d="M200 4040h40v20h-40zm58 20h24v20h-24z"/><path fill="#FFF" d="M280 4060h20v20h-20zm-40 0h20v20h-20z"/><path fill="#C68A74" d="M180 4040h20v20h-20z"/><path fill="url(#A)" d="M100 60V40H80v20H60V40H40v20H20v20h20v20h20v20h20v-20h40V80h20V40h-20v20h-20zM0 40h20v20H0V40zm100-20h20v20h-20V20zM60 0h20v20H60V0zM20 20h20v20H20V20z" transform="translate(140 4240)"/><path fill="#000" d="M200 4360v20h40v-20h20v-20h-40v20"/><path fill="#E2B79C" d="M240 4360h20v20h-20v-20zm-60 0h20v20h-20v-20z"/><path fill="#B47878" fill-opacity=".4" d="M280 4380H140v20h140"/><path fill="#B47878" d="M260 4360h20v20h-20zm-100 0h20v20h-20z"/><path fill="#303945" fill-opacity=".8" d="M1280 4860h240v20h-240z"/><path fill="#472A1E" d="M1440 4859h40v21h-40zm-120 1h20v-1h20v21h-40"/><path fill="#57629D" d="M1440 4841h20v-181h20v-221h-139v201h-1v201h20v-181h20v-180h61v160h-1"/><path fill="#495491" d="M1440 4480h20v160h-20v-160zm40-80h-140v240h20v-160h20v-20h40v-20h60v-40zm-40 260h20v40h-20v-40zm-100 0h20v40h-20v-40zm100 180h40v20h-40v-20zm-100 0h20v20h-20v-20z"/><path fill="#DFA8A8" d="M1340 4140v320h20v-20h40v-20h20v20h40v20h20v-320h-20v-20h-100v20"/><path fill="#F5C3C3" d="M1440 4159h20v281h-20v-281zm-80 0h20v281h-20v-281z"/><path fill="#FFE8E8" fill-opacity=".3" d="M1340 4180h140v20h-140v-20zm0 60h140v20h-140v-20zm0 60h140v20h-140v-20zm0 60h140v20h-140v-20zm0 60h60v20h-60v-20zm80 0h60v20h-60v-20z"/><path fill="#B47878" d="M1400 4180v-20h-40v-20h20v40h60v-40h20v20h-40v260h-20"/><g transform="translate(1300 4160)"><mask id="C" fill="#fff"><use xlink:href="#B"/></mask><use fill="#DFA8A8" xlink:href="#B"/><path fill="#F5C3C3" d="M140-20h20v300h-20V-20zm-80 0h20v300H60V-20zM20 0h20v320H20V0zm160 0h20v320h-20V0z" mask="url(#C)"/><path fill="#DFA8A8" d="M200 180h-20v60h20M40 180H20v60h20v-20h20v-20H40" mask="url(#C)"/><path fill="#FFE8E8" fill-opacity=".3" d="M0 20h220v20H0V20zm0-60h220v20H0v-20zM0 80h220v20H0V80zm0 60h220v20H0v-20zm0 60h220v20H0v-20zm0 60h220v20H0v-20zm0 60h220v20H0v-20z" mask="url(#C)"/></g><path fill="#F7CC96" d="M1418 4018l82 1v41l-25 2v40h-57"/><path fill="#C68A74" d="M1400 4140v40h20v-40h1v-21h-20v-20h-21v41"/><path fill="#E2B79C" d="M1418 4018h62v22h-62v-22zm42 62h20v20h-20v-20zm-61-21h21v22h-21v-22z"/><path fill="#472A1E" d="M1400 4080h20v20h60v40h-60v-20h-20v-20h-20v-42h20v22m20-100h80v40h-61v-19h-19"/><path fill="#5D4439" d="M1420 4020v20h-20v-40h40v20h-20"/><path fill="#212121" d="M1400 4040h40v20h-40zm58 20h24v20h-24z"/><path fill="#FFF" d="M1480 4060h20v20h-20zm-40 0h20v20h-20z"/><path fill="#C68A74" d="M1380 4040h20v20h-20z"/><path fill="url(#A)" d="M100 60V40H80v20H60V40H40v20H20v20h20v20h20v20h20v-20h40V80h20V40h-20v20h-20zM0 40h20v20H0V40zm100-20h20v20h-20V20zM60 0h20v20H60V0zM20 20h20v20H20V20z" transform="translate(1340 4240)"/><path fill="#000" d="M1400 4360v20h40v-20h20v-20h-40v20"/><path fill="#E2B79C" d="M1440 4360h20v20h-20v-20zm-60 0h20v20h-20v-20z"/><path fill="#B47878" fill-opacity=".4" d="M1480 4380h-140v20h140"/><path fill="#B47878" d="M1460 4360h20v20h-20zm-100 0h20v20h-20z"/><path fill="#303945" fill-opacity=".8" d="M1680 4860h240v20h-240z"/><path fill="#472A1E" d="M1840 4859h40v21h-40zm-120 1h20v-1h20v21h-40"/><path fill="#57629D" d="M1840 4841h20v-181h20v-221h-139v201h-1v201h20v-181h20v-180h61v160h-1"/><path fill="#495491" d="M1840 4480h20v160h-20v-160zm40-80h-140v240h20v-160h20v-20h40v-20h60v-40zm-40 260h20v40h-20v-40zm-100 0h20v40h-20v-40zm100 180h40v20h-40v-20zm-100 0h20v20h-20v-20z"/><path fill="#DFA8A8" d="M1740 4140v320h20v-20h40v-20h20v20h40v20h20v-320h-20v-20h-100v20"/><path fill="#F5C3C3" d="M1840 4159h20v281h-20v-281zm-80 0h20v281h-20v-281z"/><path fill="#FFE8E8" fill-opacity=".3" d="M1740 4180h140v20h-140v-20zm0 60h140v20h-140v-20zm0 60h140v20h-140v-20zm0 60h140v20h-140v-20zm0 60h60v20h-60v-20zm80 0h60v20h-60v-20z"/><path fill="#B47878" d="M1800 4180v-20h-40v-20h20v40h60v-40h20v20h-40v260h-20"/><g transform="translate(1700 4160)"><mask id="E" fill="#fff"><use xlink:href="#D"/></mask><use fill="#DFA8A8" xlink:href="#D"/><path fill="#F5C3C3" d="M140-20h20v300h-20V-20zm-80 0h20v300H60V-20zM20 0h20v320H20V0zm160 0h20v320h-20V0z" mask="url(#E)"/><path fill="#DFA8A8" d="M200 180h-20v60h20M40 180H20v60h20v-20h20v-20H40" mask="url(#E)"/><path fill="#FFE8E8" fill-opacity=".3" d="M0 20h220v20H0V20zm0-60h220v20H0v-20zM0 80h220v20H0V80zm0 60h220v20H0v-20zm0 60h220v20H0v-20zm0 60h220v20H0v-20zm0 60h220v20H0v-20z" mask="url(#E)"/></g><path fill="#F7CC96" d="M1818 4018l82 1v41l-25 2v40h-57"/><path fill="#C68A74" d="M1800 4140v40h20v-40h1v-21h-20v-20h-21v41"/><path fill="#E2B79C" d="M1818 4018h62v22h-62v-22zm42 62h20v20h-20v-20zm-61-21h21v22h-21v-22z"/><path fill="#472A1E" d="M1800 4080h20v20h60v40h-60v-20h-20v-20h-20v-42h20v22m20-100h80v40h-61v-19h-19"/><path fill="#5D4439" d="M1820 4020v20h-20v-40h40v20h-20"/><path fill="#212121" d="M1800 4040h40v20h-40zm58 20h24v20h-24z"/><path fill="#FFF" d="M1880 4060h20v20h-20zm-40 0h20v20h-20z"/><path fill="#C68A74" d="M1780 4040h20v20h-20z"/><path fill="url(#A)" d="M100 60V40H80v20H60V40H40v20H20v20h20v20h20v20h20v-20h40V80h20V40h-20v20h-20zM0 40h20v20H0V40zm100-20h20v20h-20V20zM60 0h20v20H60V0zM20 20h20v20H20V20z" transform="translate(1740 4240)"/><path fill="#000" d="M1800 4360v20h40v-20h20v-20h-40v20"/><path fill="#E2B79C" d="M1840 4360h20v20h-20v-20zm-60 0h20v20h-20v-20z"/><path fill="#B47878" fill-opacity=".4" d="M1880 4380h-140v20h140"/><path fill="#B47878" d="M1860 4360h20v20h-20zm-100 0h20v20h-20z"/><path fill="#303945" fill-opacity=".8" d="M480 4860h240v20H480z"/><path fill="#472A1E" d="M640 4859h40v21h-40zm-120 1h20v-1h20v21h-40"/><path fill="#57629D" d="M640 4841h20v-181h20v-221H541v201h-1v201h20v-181h20v-180h61v160h-1"/><path fill="#495491" d="M640 4480h20v160h-20v-160zm40-80H540v240h20v-160h20v-20h40v-20h60v-40zm-40 260h20v40h-20v-40zm-100 0h20v40h-20v-40zm100 180h40v20h-40v-20zm-100 0h20v20h-20v-20z"/><path fill="#DFA8A8" d="M540 4140v320h20v-20h40v-20h20v20h40v20h20v-320h-20v-20H560v20"/><path fill="#F5C3C3" d="M640 4159h20v281h-20v-281zm-80 0h20v281h-20v-281z"/><path fill="#FFE8E8" fill-opacity=".3" d="M540 4180h140v20H540v-20zm0 60h140v20H540v-20zm0 60h140v20H540v-20zm0 60h140v20H540v-20zm0 60h60v20h-60v-20zm80 0h60v20h-60v-20z"/><path fill="#B47878" d="M600 4180v-20h-40v-20h20v40h60v-40h20v20h-40v260h-20"/><g transform="translate(500 4160)"><mask id="G" fill="#fff"><use xlink:href="#F"/></mask><use fill="#DFA8A8" xlink:href="#F"/><path fill="#F5C3C3" d="M140-20h20v300h-20V-20zm-80 0h20v300H60V-20zM20 0h20v320H20V0zm160 0h20v320h-20V0z" mask="url(#G)"/><path fill="#DFA8A8" d="M200 180h-20v40h20M40 180H20v40h20v-20h20v-20" mask="url(#G)"/><path fill="#FFE8E8" fill-opacity=".3" d="M0 20h220v20H0V20zm0-60h220v20H0v-20zM0 80h220v20H0V80zm0 60h220v20H0v-20zm0 60h220v20H0v-20zm0 60h220v20H0v-20zm0 60h220v20H0v-20z" mask="url(#G)"/></g><path fill="url(#A)" d="M100 60V40H80v20H60V40H40v20H20v20h20v20h20v20h20v-20h40V80h20V40h-20v20h-20zM0 40h20v20H0V40zm100-20h20v20h-20V20zM60 0h20v20H60V0zM20 20h20v20H20V20z" transform="translate(540 4220)"/><path fill="#000" d="M600 4340v20h40v-20h20v-20h-40v20"/><path fill="#E2B79C" d="M640 4340h20v20h-20v-20zm-60 0h20v20h-20v-20z"/><path fill="#F7CC96" d="M618 4018l82 1v41l-25 2v40h-57"/><path fill="#C68A74" d="M600 4140v40h20v-40h1v-21h-20v-20h-21v41"/><path fill="#E2B79C" d="M618 4018h62v22h-62v-22zm42 62h20v20h-20v-20zm-61-21h21v22h-21v-22z"/><path fill="#472A1E" d="M600 4080h20v20h60v40h-60v-20h-20v-20h-20v-42h20v22m20-100h80v40h-61v-19h-19"/><path fill="#5D4439" d="M620 4020v20h-20v-40h40v20h-20"/><path fill="#212121" d="M600 4040h40v20h-40zm58 20h24v20h-24z"/><path fill="#FFF" d="M680 4060h20v20h-20zm-40 0h20v20h-20z"/><path fill="#C68A74" d="M580 4040h20v20h-20z"/><path fill="#B47878" d="M660 4340h20v20h-20zm-100 0h20v20h-20z"/><path fill="#303945" fill-opacity=".8" d="M880 4860h240v20H880z"/><path fill="#472A1E" d="M1040 4859h40v21h-40zm-120 1h20v-1h20v21h-40"/><path fill="#57629D" d="M1040 4841h20v-181h20v-221H941v201h-1v201h20v-181h20v-180h61v160h-1"/><path fill="#495491" d="M1040 4480h20v160h-20v-160zm40-80H940v240h20v-160h20v-20h40v-20h60v-40zm-40 260h20v40h-20v-40zm-100 0h20v40h-20v-40zm100 180h40v20h-40v-20zm-100 0h20v20h-20v-20z"/><path fill="#DFA8A8" d="M940 4140v320h20v-20h40v-20h20v20h40v20h20v-320h-20v-20H960v20"/><path fill="#F5C3C3" d="M1040 4159h20v281h-20v-281zm-80 0h20v281h-20v-281z"/><path fill="#FFE8E8" fill-opacity=".3" d="M940 4180h140v20H940v-20zm0 60h140v20H940v-20zm0 60h140v20H940v-20zm0 60h140v20H940v-20zm0 60h60v20h-60v-20zm80 0h60v20h-60v-20z"/><path fill="#B47878" d="M1000 4180v-20h-40v-20h20v40h60v-40h20v20h-40v260h-20"/><g transform="translate(900 4160)"><mask id="I" fill="#fff"><use xlink:href="#H"/></mask><use fill="#DFA8A8" xlink:href="#H"/><path fill="#F5C3C3" d="M140-20h20v300h-20V-20zm-80 0h20v300H60V-20zM20 0h20v320H20V0zm160 0h20v320h-20V0z" mask="url(#I)"/><path fill="#DFA8A8" d="M200 180h-20v40h20M40 180H20v40h20v-20h20v-20" mask="url(#I)"/><path fill="#FFE8E8" fill-opacity=".3" d="M0 20h220v20H0V20zm0-60h220v20H0v-20zM0 80h220v20H0V80zm0 60h220v20H0v-20zm0 60h220v20H0v-20zm0 60h220v20H0v-20zm0 60h220v20H0v-20z" mask="url(#I)"/></g><path fill="url(#A)" d="M100 60V40H80v20H60V40H40v20H20v20h20v20h20v20h20v-20h40V80h20V40h-20v20h-20zM0 40h20v20H0V40zm100-20h20v20h-20V20zM60 0h20v20H60V0zM20 20h20v20H20V20z" transform="translate(940 4220)"/><path fill="#000" d="M1000 4340v20h40v-20h20v-20h-40v20"/><path fill="#E2B79C" d="M1040 4340h20v20h-20v-20zm-60 0h20v20h-20v-20z"/><path fill="#F7CC96" d="M1018 4018l82 1v41l-25 2v40h-57"/><path fill="#C68A74" d="M1000 4140v40h20v-40h1v-21h-20v-20h-21v41"/><path fill="#E2B79C" d="M1018 4018h62v22h-62v-22zm42 62h20v20h-20v-20zm-61-21h21v22h-21v-22z"/><path fill="#472A1E" d="M1000 4080h20v20h60v40h-60v-20h-20v-20h-20v-42h20v22m20-100h80v40h-61v-19h-19"/><path fill="#5D4439" d="M1020 4020v20h-20v-40h40v20h-20"/><path fill="#212121" d="M1000 4040h40v20h-40zm58 20h24v20h-24z"/><path fill="#FFF" d="M1080 4060h20v20h-20zm-40 0h20v20h-20z"/><path fill="#C68A74" d="M980 4040h20v20h-20z"/><path fill="#B47878" d="M1060 4340h20v20h-20zm-100 0h20v20h-20z"/><path fill="#303945" fill-opacity=".8" d="M2080 4860h240v20h-240z"/><path fill="#472A1E" d="M2240 4859h40v21h-40zm-120 1h20v-1h20v21h-40"/><path fill="#57629D" d="M2240 4841h20v-181h20v-221h-139v201h-1v201h20v-181h20v-180h61v160h-1"/><path fill="#495491" d="M2240 4480h20v160h-20v-160zm40-80h-140v240h20v-160h20v-20h40v-20h60v-40zm-40 260h20v40h-20v-40zm-100 0h20v40h-20v-40zm100 180h40v20h-40v-20zm-100 0h20v20h-20v-20z"/><path fill="#DFA8A8" d="M2140 4140v320h20v-20h40v-20h20v20h40v20h20v-320h-20v-20h-100v20"/><path fill="#F5C3C3" d="M2240 4159h20v281h-20v-281zm-80 0h20v281h-20v-281z"/><path fill="#FFE8E8" fill-opacity=".3" d="M2140 4180h140v20h-140v-20zm0 60h140v20h-140v-20zm0 60h140v20h-140v-20zm0 60h140v20h-140v-20zm0 60h60v20h-60v-20zm80 0h60v20h-60v-20z"/><path fill="#B47878" d="M2200 4180v-20h-40v-20h20v40h60v-40h20v20h-40v260h-20"/><g transform="translate(2100 4160)"><mask id="K" fill="#fff"><use xlink:href="#J"/></mask><use fill="#DFA8A8" xlink:href="#J"/><path fill="#F5C3C3" d="M140-20h20v300h-20V-20zm-80 0h20v300H60V-20zM20 0h20v320H20V0zm160 0h20v320h-20V0z" mask="url(#K)"/><path fill="#DFA8A8" d="M200 180h-20v40h20M40 180H20v40h20v-20h20v-20" mask="url(#K)"/><path fill="#FFE8E8" fill-opacity=".3" d="M0 20h220v20H0V20zm0-60h220v20H0v-20zM0 80h220v20H0V80zm0 60h220v20H0v-20zm0 60h220v20H0v-20zm0 60h220v20H0v-20zm0 60h220v20H0v-20z" mask="url(#K)"/></g><path fill="url(#A)" d="M100 60V40H80v20H60V40H40v20H20v20h20v20h20v20h20v-20h40V80h20V40h-20v20h-20zM0 40h20v20H0V40zm100-20h20v20h-20V20zM60 0h20v20H60V0zM20 20h20v20H20V20z" transform="translate(2140 4220)"/><path fill="#000" d="M2200 4340v20h40v-20h20v-20h-40v20"/><path fill="#E2B79C" d="M2240 4340h20v20h-20v-20zm-60 0h20v20h-20v-20z"/><path fill="#F7CC96" d="M2218 4018l82 1v41l-25 2v40h-57"/><path fill="#C68A74" d="M2200 4140v40h20v-40h1v-21h-20v-20h-21v41"/><path fill="#E2B79C" d="M2218 4018h62v22h-62v-22zm42 62h20v20h-20v-20zm-61-21h21v22h-21v-22z"/><path fill="#472A1E" d="M2200 4080h20v20h60v40h-60v-20h-20v-20h-20v-42h20v22m20-100h80v40h-61v-19h-19"/><path fill="#5D4439" d="M2220 4020v20h-20v-40h40v20h-20"/><path fill="#212121" d="M2200 4040h40v20h-40zm58 20h24v20h-24z"/><path fill="#FFF" d="M2280 4060h20v20h-20zm-40 0h20v20h-20z"/><path fill="#C68A74" d="M2180 4040h20v20h-20z"/><path fill="#B47878" d="M2260 4340h20v20h-20zm-100 0h20v20h-20z"/><path fill="#303945" fill-opacity=".8" d="M2880 4860h240v20h-240z"/><path fill="#472A1E" d="M3040 4859h40v21h-40zm-120 1h20v-1h20v21h-40"/><path fill="#57629D" d="M3040 4841h20v-181h20v-221h-139v201h-1v201h20v-181h20v-180h61v160h-1"/><path fill="#495491" d="M3040 4480h20v160h-20v-160zm40-80h-140v240h20v-160h20v-20h40v-20h60v-40zm-40 260h20v40h-20v-40zm-100 0h20v40h-20v-40zm100 180h40v20h-40v-20zm-100 0h20v20h-20v-20z"/><path fill="#DFA8A8" d="M2940 4140v320h20v-20h40v-20h20v20h40v20h20v-320h-20v-20h-100v20"/><path fill="#F5C3C3" d="M3040 4159h20v281h-20v-281zm-80 0h20v281h-20v-281z"/><path fill="#FFE8E8" fill-opacity=".3" d="M2940 4180h140v20h-140v-20zm0 60h140v20h-140v-20zm0 60h140v20h-140v-20zm0 60h140v20h-140v-20zm0 60h60v20h-60v-20zm80 0h60v20h-60v-20z"/><path fill="#B47878" d="M3000 4180v-20h-40v-20h20v40h60v-40h20v20h-40v260h-20"/><g transform="translate(2900 4160)"><mask id="M" fill="#fff"><use xlink:href="#L"/></mask><use fill="#DFA8A8" xlink:href="#L"/><path fill="#F5C3C3" d="M140-20h20v300h-20V-20zm-80 0h20v300H60V-20zM20 0h20v320H20V0zm160 0h20v320h-20V0z" mask="url(#M)"/><path fill="#DFA8A8" d="M200 180h-20v40h20M40 180H20v40h20v-20h20v-20" mask="url(#M)"/><path fill="#FFE8E8" fill-opacity=".3" d="M0 20h220v20H0V20zm0-60h220v20H0v-20zM0 80h220v20H0V80zm0 60h220v20H0v-20zm0 60h220v20H0v-20zm0 60h220v20H0v-20zm0 60h220v20H0v-20z" mask="url(#M)"/></g><path fill="url(#A)" d="M100 60V40H80v20H60V40H40v20H20v20h20v20h20v20h20v-20h40V80h20V40h-20v20h-20zM0 40h20v20H0V40zm100-20h20v20h-20V20zM60 0h20v20H60V0zM20 20h20v20H20V20z" transform="translate(2940 4220)"/><path fill="#000" d="M3000 4340v20h40v-20h20v-20h-40v20"/><path fill="#E2B79C" d="M3040 4340h20v20h-20v-20zm-60 0h20v20h-20v-20z"/><path fill="#F7CC96" d="M3018 4018l82 1v41l-25 2v40h-57"/><path fill="#C68A74" d="M3000 4140v40h20v-40h1v-21h-20v-20h-21v41"/><path fill="#E2B79C" d="M3018 4018h62v22h-62v-22zm42 62h20v20h-20v-20zm-61-21h21v22h-21v-22z"/><path fill="#472A1E" d="M3000 4080h20v20h60v40h-60v-20h-20v-20h-20v-42h20v22m20-100h80v40h-61v-19h-19"/><path fill="#5D4439" d="M3020 4020v20h-20v-40h40v20h-20"/><path fill="#212121" d="M3000 4040h40v20h-40zm58 20h24v20h-24z"/><path fill="#FFF" d="M3080 4060h20v20h-20zm-40 0h20v20h-20z"/><path fill="#C68A74" d="M2980 4040h20v20h-20z"/><path fill="#B47878" d="M3060 4340h20v20h-20zm-100 0h20v20h-20z"/><path fill="#303945" fill-opacity=".8" d="M2480 4860h240v20h-240z"/><path fill="#472A1E" d="M2640 4859h40v21h-40zm-120 1h20v-1h20v21h-40"/><path fill="#57629D" d="M2640 4841h20v-181h20v-221h-139v201h-1v201h20v-181h20v-180h61v160h-1"/><path fill="#495491" d="M2640 4480h20v160h-20v-160zm40-80h-140v240h20v-160h20v-20h40v-20h60v-40zm-40 260h20v40h-20v-40zm-100 0h20v40h-20v-40zm100 180h40v20h-40v-20zm-100 0h20v20h-20v-20z"/><path fill="#DFA8A8" d="M2540 4140v320h20v-20h40v-20h20v20h40v20h20v-320h-20v-20h-100v20"/><path fill="#F5C3C3" d="M2640 4159h20v281h-20v-281zm-80 0h20v281h-20v-281z"/><path fill="#FFE8E8" fill-opacity=".3" d="M2540 4180h140v20h-140v-20zm0 60h140v20h-140v-20zm0 60h140v20h-140v-20zm0 60h140v20h-140v-20zm0 60h60v20h-60v-20zm80 0h60v20h-60v-20z"/><path fill="#B47878" d="M2600 4180v-20h-40v-20h20v40h60v-40h20v20h-40v260h-20"/><g transform="translate(2500 4160)"><mask id="O" fill="#fff"><use xlink:href="#N"/></mask><use fill="#DFA8A8" xlink:href="#N"/><path fill="#F5C3C3" d="M140-20h20v300h-20V-20zm-80 0h20v300H60V-20zM20 0h20v320H20V0zm160 0h20v320h-20V0z" mask="url(#O)"/><path fill="#DFA8A8" d="M200 180h-20v40h20M40 180H20v40h20v-20h20v-20" mask="url(#O)"/><path fill="#FFE8E8" fill-opacity=".3" d="M0 20h220v20H0V20zm0-60h220v20H0v-20zM0 80h220v20H0V80zm0 60h220v20H0v-20zm0 60h220v20H0v-20zm0 60h220v20H0v-20zm0 60h220v20H0v-20z" mask="url(#O)"/></g><path fill="url(#A)" d="M100 60V40H80v20H60V40H40v20H20v20h20v20h20v20h20v-20h40V80h20V40h-20v20h-20zM0 40h20v20H0V40zm100-20h20v20h-20V20zM60 0h20v20H60V0zM20 20h20v20H20V20z" transform="translate(2540 4220)"/><path fill="#000" d="M2600 4340v20h40v-20h20v-20h-40v20"/><path fill="#E2B79C" d="M2640 4340h20v20h-20v-20zm-60 0h20v20h-20v-20z"/><path fill="#F7CC96" d="M2618 3998h62v84h-62z"/><path fill="#C68A74" d="M2580 4099v41h20v40h20v-40h20v-21h-39v-20"/><path fill="#E2B79C" d="M2598 3998h42v24h-42v-24zm60-18h22v20h-22v-20zm-18 58h20v22h-20v-22zm-42 2h22v42h-22v-42z"/><path fill="#472A1E" d="M2600 4080h80v40h-80v-20h-20v-42h20v22m0-100v-20h80v20h-20v20h-62v-20"/><path fill="#5D4439" d="M2580 3980h20v42h-20z"/><path fill="#212121" d="M2580 4020h42v20h-42zm58 0h24v20h-24z"/><path fill="#FFF" d="M2660 4020h20v20h-20zm-40 0h20v20h-20z"/><path fill="#C68A74" d="M2580 4040h20v20h-20z"/><path fill="#B47878" d="M2660 4340h20v20h-20zm-100 0h20v20h-20z"/><path fill="#303945" fill-opacity=".8" d="M500 1920h200v20H500z"/><path fill="#58629C" d="M620 1720h-20v100h-20v-300h-20v-60h120v80h-20v180h-20v181h-20v-181zm-60 100h20v40h-20v-40z"/><path fill="#495491" d="M600 1720h20v-200h20v-20h20v-20h20v-20H560v60h20v300h20v-100zm20 180h40v20h-40v-20zm-60-60h20v20h-20v-20zm60-120h20v40h-20v-40z"/><path fill="#472B1F" d="M620 1920h40v20h-40zm-80-80h20v41h-20z"/><path fill="#C68A74" d="M600 1160h60v80h-60z"/><path fill="#DFA8A8" d="M560 1220h20v-20h40v-20h20v40h20v-40h20v280h-40v20h-60v20h-20v20h-20v-160h20"/><path fill="#F4C3C3" d="M600 1200h20v280h-20v-280zm-40 20h20v280h-20v-280z"/><path fill="#FFE8E8" fill-opacity=".3" d="M560 1220h120v20H560v-20zm0 60h120v20H560v-20zm0 60h120v20H560v-20zm-20 60h140v20H540v-20zm0 60h100v20H540v-20zm0 40h20v20h-20v-20z"/><path fill="#B47878" d="M640 1200h-60v-20h40v40h60v-20h-20v260h-20"/><path fill="#F7CC96" d="M638 1038h62v22h-1v20h1v42h-62"/><path fill="#C68A74" d="M600 1139v41h40v40h20v-61h-39v-20"/><path fill="#E2B79C" d="M639 1039h21v22h-21v-22zm39-19h22v20h-22v-20zm2 59h20v21h-20v-21zm-61 1h41v41h-41v-41z"/><path fill="#472A1E" d="M620 1120h80v40h-80v-20h-20v-60h20m0-80h80v40h-41v-19h-39"/><path fill="#5D4439" d="M600 1020h60v20h-20v21h-40"/><path fill="#212121" d="M620 1060h48.8v20H620zm63.2 0H700v20h-16.8z"/><path fill="#FFF" d="M668 1060h16v20h-16z"/><path fill="#C68A74" d="M600 1060h20v20h-20z"/><path fill="#DFA8A8" d="M580 1501h20v-261h-20"/><path fill="#F7CC96" d="M580 1519h20v21h-20z"/><path fill="#B47878" d="M580 1500h20v20h-20z"/><path fill="#303945" fill-opacity=".8" d="M900 1920h200v20H900z"/><path fill="#472B1F" d="M960 1900h-20v20h40v20h-20m120-80h40v20h-40z"/><path fill="#58629C" d="M1060 1660v-121h-21v121h1v1h19v79h1v1h20v-81h-20zm-120 180h20v41h-20v-41zm40-100v100h-20v-320h40v220h-20z"/><path fill="#495491" d="M1080 1820h20v40h-20v-40zm-140 60h20v20h-20v-20zm20-340h-20v-80h140v80h-40v120h20v80h20v80h-20v-80h-20v-80h-20v-120h-40v180h-20v-180zm0 200h20v40h-20v-40z"/><path fill="#C68A74" d="M1000 1180h60v80h-60z"/><path fill="#DFA8A8" d="M1079 1360h41v101h-20v-201h-21"/><path fill="#F7CC96" d="M1100 1479h20v21h-20z"/><path fill="#B47878" d="M1100 1460h20v20h-20z"/><path fill="#DFA8A8" d="M960 1240h20v-20h40v-20h20v40h20v-40h20v280h-40v20h-60v20h-20v20h-20v-160h20"/><path fill="#F4C3C3" d="M1000 1220h20v280h-20v-280zm-40 20h20v280h-20v-280z"/><path fill="#FFE8E8" fill-opacity=".3" d="M960 1240h120v20H960v-20zm0 60h120v20H960v-20zm0 60h120v20H960v-20zm-20 60h140v20H940v-20zm0 60h100v20H940v-20zm0 40h20v20h-20v-20z"/><path fill="#B47878" d="M1040 1220h-60v-20h40v40h60v-20h-20v260h-20"/><path fill="#F7CC96" d="M1038 1058h62v22h-1v20h1v42h-62"/><path fill="#C68A74" d="M1000 1159v41h40v40h20v-61h-39v-20"/><path fill="#E2B79C" d="M1039 1059h21v22h-21v-22zm39-19h22v20h-22v-20zm2 59h20v21h-20v-21zm-61 1h41v41h-41v-41z"/><path fill="#472A1E" d="M1020 1140h80v40h-80v-20h-20v-60h20m0-80h80v40h-41v-19h-39"/><path fill="#5D4439" d="M1000 1040h60v20h-20v21h-40"/><path fill="#212121" d="M1020 1080h48.8v20H1020zm63.2 0h16.8v20h-16.8z"/><path fill="#FFF" d="M1068 1080h16v20h-16z"/><path fill="#C68A74" d="M1000 1080h20v20h-20z"/><path fill="#DFA8A8" d="M960 1440h40v-180h-20v241h-20"/><path fill="#B47878" fill-opacity=".4" d="M980 1440h40v-180h-20v241h-20"/><path fill="#F7CC96" d="M960 1520h20v20h-20z"/><path fill="#B47878" d="M960 1500h20v20h-20z"/><path fill="#303945" fill-opacity=".8" d="M1280 1920h240v20h-240z"/><path fill="#472B1F" d="M1480 1920h40v20h-40zm-180-80h20v40h-20z"/><path fill="#58629C" d="M1401 1640h-41v60h-20v140h-20v-140h20v-60h20v-179l120-1v441h20v-201h-60v-160h-40"/><path fill="#495491" d="M1360 1460h120v40h-40v20h-40v20h-20v100h-20v-180zm80 80h20v140h-20v-140zm40 160h20v40h-20v-40zm-140 40v-40h-20v40h20zm-20 80h20v20h-20v-20zm160 80h20v20h-20v-20z"/><path fill="#C68A74" d="M1400 1180h60v80h-60z"/><path fill="#DFA8A8" d="M1520 1340h-41v-100h21v160h40v80h-20"/><path fill="#F7CC96" d="M1520 1479h20v21h-20z"/><path fill="#B47878" d="M1520 1460h20v20h-20z"/><path fill="#DFA8A8" d="M1360 1240h20v-20h40v-20h20v40h20v-40h20v280h-40v20h-60v20h-20v20h-20v-160h20"/><path fill="#F4C3C3" d="M1400 1220h20v280h-20v-280zm-40 20h20v280h-20v-280z"/><path fill="#FFE8E8" fill-opacity=".3" d="M1360 1240h120v20h-120v-20zm0 60h120v20h-120v-20zm0 60h120v20h-120v-20zm-20 60h140v20h-140v-20zm0 60h100v20h-100v-20zm0 40h20v20h-20v-20z"/><path fill="#B47878" d="M1440 1220h-60v-20h40v40h60v-20h-20v260h-20"/><path fill="#F7CC96" d="M1438 1058h62v22h-1v20h1v42h-62"/><path fill="#C68A74" d="M1400 1159v41h40v40h20v-61h-39v-20"/><path fill="#E2B79C" d="M1439 1059h21v22h-21v-22zm39-19h22v20h-22v-20zm2 59h20v21h-20v-21zm-61 1h41v41h-41v-41z"/><path fill="#472A1E" d="M1420 1140h80v40h-80v-20h-20v-60h20m0-80h80v40h-41v-19h-39"/><path fill="#5D4439" d="M1400 1040h60v20h-20v21h-40"/><path fill="#212121" d="M1420 1080h48.8v20H1420zm63.2 0h16.8v20h-16.8z"/><path fill="#FFF" d="M1468 1080h16v20h-16z"/><path fill="#C68A74" d="M1400 1080h20v20h-20z"/><path fill="#B47878" fill-opacity=".4" d="M1399 1260h21v60h-41v80h1v120h-21v-120h41v-80h-1"/><path fill="#DFA8A8" d="M1380 1260h20v60h-40v181h-20v-101h40"/><path fill="#F7CC96" d="M1340 1519h20v21h-20z"/><path fill="#B47878" d="M1340 1500h20v20h-20z"/><path fill="#303945" fill-opacity=".8" d="M1680 1920h240v20h-240z"/><path fill="#C68A74" d="M1800 1180h60v80h-60z"/><path fill="#472B1F" d="M1880 1920h40v20h-40zm-240-120h20v40h-20z"/><path fill="#58629C" d="M1800 1720h-40v60h-60v40h-40v-20h80v-80h20v-259l120-1v360h20v80h-20v-80h-20v-120h-20v-160h-40"/><path fill="#495491" d="M1760 1460h120v40h-40v20h-40v20h-20v160h-20v-240zm80 80h20v140h-20v-140zm20 160h20v40h-20v-40zm-100 80v-60h-20v60h20zm-100 20h20v20h-20v-20zm220 100h20v20h-20v-20z"/><path fill="#DFA8A8" d="M1760 1240h20v-20h40v-20h20v40h20v-40h20v280h-40v20h-60v20h-20v20h-20v-160h20"/><path fill="#F4C3C3" d="M1800 1220h20v280h-20v-280zm-40 20h20v280h-20v-280z"/><path fill="#FFE8E8" fill-opacity=".3" d="M1760 1240h120v20h-120v-20zm0 60h120v20h-120v-20zm0 60h120v20h-120v-20zm-20 60h140v20h-140v-20zm0 60h100v20h-100v-20zm0 40h20v20h-20v-20z"/><path fill="#B47878" d="M1840 1220h-60v-20h40v40h60v-20h-20v260h-20"/><path fill="#F7CC96" d="M1838 1058h62v22h-1v20h1v42h-62"/><path fill="#C68A74" d="M1800 1159v41h40v40h20v-61h-39v-20"/><path fill="#E2B79C" d="M1839 1059h21v22h-21v-22zm39-19h22v20h-22v-20zm2 59h20v21h-20v-21zm-61 1h41v41h-41v-41z"/><path fill="#472A1E" d="M1820 1140h80v40h-80v-20h-20v-60h20m0-80h80v40h-41v-19h-39"/><path fill="#5D4439" d="M1800 1040h60v20h-20v21h-40"/><path fill="#212121" d="M1820 1080h48.8v20H1820zm63.2 0h16.8v20h-16.8z"/><path fill="#FFF" d="M1868 1080h16v20h-16z"/><path fill="#C68A74" d="M1800 1080h20v20h-20z"/><path fill="#DFA8A8" d="M1880 1240h20v160h40v61h-20v-181h-40"/><path fill="#F7CC96" d="M1920 1479h20v21h-20z"/><path fill="#B47878" d="M1920 1460h20v20h-20z"/><path fill="#B47878" fill-opacity=".4" d="M1800 1280h-21v20h1v40h-20v40h-21v120h21v-160h-1v-40h41"/><path fill="#DFA8A8" d="M1780 1260h20v20h-40v60h-40v161h20v-201h40"/><path fill="#F7CC96" d="M1720 1519h20v21h-20z"/><path fill="#B47878" d="M1720 1500h20v20h-20z"/><path fill="#303945" fill-opacity=".8" d="M2080 1920h240v20h-240z"/><path fill="#472B1F" d="M2180 1920h40v20h-40z"/><path fill="#58629C" d="M2200 1920h-20v-200h-20v-259l120-1v240h-20v100h-40v80h-20v-40h40v-300h-40"/><path fill="#495491" d="M2160 1460h120v40h-40v20h-40v20h-20v160h-20v-240zm80 80h20v140h-20v-140zm0 160h20v40h-20v-40zm-40 60v-40h-20v40h20zm0 80h20v40h-20v-40zm-20 60h20v20h-20v-20z"/><path fill="#C68A74" d="M2200 1160h60v80h-60z"/><path fill="#F7CC96" d="M2238 1038h62v22h-1v20h1v42h-62"/><path fill="#C68A74" d="M2200 1139v41h40v40h20v-61h-39v-20"/><path fill="#E2B79C" d="M2239 1039h21v22h-21v-22zm39-19h22v20h-22v-20zm2 59h20v21h-20v-21zm-61 1h41v41h-41v-41z"/><path fill="#472A1E" d="M2220 1120h80v40h-80v-20h-20v-60h20m0-80h80v40h-41v-19h-39"/><path fill="#5D4439" d="M2200 1020h60v20h-20v21h-40"/><path fill="#212121" d="M2220 1060h48.8v20H2220zm63.2 0h16.8v20h-16.8z"/><path fill="#FFF" d="M2268 1060h16v20h-16z"/><path fill="#C68A74" d="M2200 1060h20v20h-20z"/><path fill="#DFA8A8" d="M2279 1340h41v101h-20v-201h-21"/><path fill="#F7CC96" d="M2300 1459h20v21h-20z"/><path fill="#B47878" d="M2300 1440h20v20h-20z"/><path fill="#DFA8A8" d="M2160 1220h20v-20h40v-20h20v40h20v-40h20v280h-40v20h-60v20h-20v20h-20v-160h20"/><path fill="#F4C3C3" d="M2200 1200h20v280h-20v-280zm-40 20h20v280h-20v-280z"/><path fill="#FFE8E8" fill-opacity=".3" d="M2160 1220h120v20h-120v-20zm0 60h120v20h-120v-20zm0 60h120v20h-120v-20zm-20 60h140v20h-140v-20zm0 60h100v20h-100v-20zm0 40h20v20h-20v-20z"/><path fill="#B47878" d="M2240 1200h-60v-20h40v40h60v-20h-20v260h-20"/><path fill="#DFA8A8" d="M2160 1420h40v-180h-20v241h-20"/><path fill="#B47878" fill-opacity=".4" d="M2180 1420h40v-180h-20v241h-20"/><path fill="#F7CC96" d="M2160 1500h20v20h-20z"/><path fill="#B47878" d="M2160 1480h20v20h-20z"/><path fill="#303945" fill-opacity=".8" d="M2480 1920h240v20h-240z"/><path fill="#472B1F" d="M2520 1920h40v20h-40z"/><path fill="#58629C" d="M2560 1699h19v-200h101v362h20v-161h-60v-160h-40v180h-21v39l-39 1h-20v141h20v-141h1v-39h19"/><path fill="#495491" d="M2560 1460h120v40h-40v20h-40v20h-20v160h-20v-240zm80 80h20v140h-20v-140zm40 160h20v40h-20v-40zm-100 60v-40h-40v40h40zm100 100h20v21h-20v-21zm-160 40h20v20h-20v-20z"/><path fill="#472B1F" d="M2680 1880h40v20h-40z"/><path fill="#C68A74" d="M2600 1160h60v80h-60z"/><path fill="#DFA8A8" d="M2560 1220h20v-20h40v-20h20v40h20v-40h20v280h-40v20h-60v20h-20v20h-20v-160h20"/><path fill="#F4C3C3" d="M2600 1200h20v280h-20v-280zm-40 20h20v280h-20v-280z"/><path fill="#FFE8E8" fill-opacity=".3" d="M2560 1220h120v20h-120v-20zm0 60h120v20h-120v-20zm0 60h120v20h-120v-20zm-20 60h140v20h-140v-20zm0 60h100v20h-100v-20zm0 40h20v20h-20v-20z"/><path fill="#B47878" d="M2640 1200h-60v-20h40v40h60v-20h-20v260h-20"/><path fill="#F7CC96" d="M2638 1038h62v22h-1v20h1v42h-62"/><path fill="#C68A74" d="M2600 1139v41h40v40h20v-61h-39v-20"/><path fill="#E2B79C" d="M2639 1039h21v22h-21v-22zm39-19h22v20h-22v-20zm2 59h20v21h-20v-21zm-61 1h41v41h-41v-41z"/><path fill="#472A1E" d="M2620 1120h80v40h-80v-20h-20v-60h20m0-80h80v40h-41v-19h-39"/><path fill="#5D4439" d="M2600 1020h60v20h-20v21h-40"/><path fill="#212121" d="M2620 1060h48.8v20H2620zm63.2 0h16.8v20h-16.8z"/><path fill="#FFF" d="M2668 1060h16v20h-16z"/><path fill="#C68A74" d="M2600 1060h20v20h-20z"/><path fill="#DFA8A8" d="M2580 1501h20v-261h-20"/><path fill="#F7CC96" d="M2580 1519h20v21h-20z"/><path fill="#B47878" d="M2580 1500h20v20h-20z"/><path fill="#303945" fill-opacity=".8" d="M80 3880h240v20H80z"/><path fill="#472A1E" d="M240 3879h40v21h-40zm-120 1h20v-1h20v21h-40"/><path fill="#57629D" d="M240 3861h20v-181h20v-221H141v201h-1v201h20v-181h20v-180h61v160h-1"/><path fill="#495491" d="M240 3500h20v160h-20v-160zm40-80H140v240h20v-160h20v-20h40v-20h60v-40zm-40 260h20v40h-20v-40zm-100 0h20v40h-20v-40zm100 180h40v20h-40v-20zm-100 0h20v20h-20v-20z"/><path fill="#DFA8A8" d="M140 3160v320h20v-20h40v-20h20v20h40v20h20v-320h-20v-20H160v20"/><path fill="#F5C3C3" d="M240 3179h20v281h-20v-281zm-80 0h20v281h-20v-281z"/><path fill="#FFE8E8" fill-opacity=".3" d="M140 3200h140v20H140v-20zm0 60h140v20H140v-20zm0 60h140v20H140v-20zm0 60h140v20H140v-20zm0 60h60v20h-60v-20zm80 0h60v20h-60v-20z"/><path fill="#B47878" d="M200 3200v-20h-40v-20h20v40h60v-40h20v20h-40v260h-20"/><path fill="#F7CC96" d="M218 3018h62v84h-62z"/><path fill="#C68A74" d="M180 3119v41h20v40h20v-40h20v-21h-39v-20"/><path fill="#E2B79C" d="M198 3018h42v24h-42v-24zm60-18h22v20h-22v-20zm-18 58h20v22h-20v-22zm-42 2h22v42h-22v-42z"/><path fill="#472A1E" d="M200 3100h80v40h-80v-20h-20v-42h20v22m0-100v-20h80v20h-20v20h-62v-20"/><path fill="#5D4439" d="M180 3000h20v42h-20z"/><path fill="#212121" d="M180 3040h42v20h-42zm58 0h24v20h-24z"/><path fill="#FFF" d="M260 3040h20v20h-20zm-40 0h20v20h-20z"/><path fill="#C68A74" d="M180 3060h20v20h-20z"/><path fill="#DFA8A8" d="M100 3220h21v60h-1v240h-20"/><path fill="#F7CC96" d="M120 3520h-20v20h20z"/><path fill="#B47878" d="M120 3500h-20v20h20z"/><path fill="#F5C3C3" d="M141 3180h-21v100h21z"/><path fill="#FFE8E8" fill-opacity=".3" d="M140 3200h-20v20h20v-20zm0 60h-40v20h40v-20zm-20 60h-20v20h20v-20zm0 60h-20v20h20v-20zm0 60h-20v20h20v-20z"/><path fill="#DFA8A8" d="M300 3220h20v140h20v40h-20v-20h-20"/><path fill="#F5C3C3" d="M279 3180h21v100h-21z"/><path fill="#FFE8E8" fill-opacity=".3" d="M280 3200h20v20h-20v-20zm0 60h40v20h-40v-20zm20 60h20v20h-20v-20zm20 60h20v20h-20v-20z"/><path fill="#F3F3F3" d="M340 3340h60v60h-60z"/><path fill="#FFF" fill-opacity=".2" d="M340 3260h20v40h-20zm20-20h20v20h-20zm0 60h20v20h-20z"/><path fill="#303945" fill-opacity=".8" d="M480 3880h240v20H480z"/><path fill="#472A1E" d="M640 3879h40v21h-40zm-120 1h20v-1h20v21h-40"/><path fill="#57629D" d="M640 3861h20v-181h20v-221H541v201h-1v201h20v-181h20v-180h61v160h-1"/><path fill="#495491" d="M640 3500h20v160h-20v-160zm40-80H540v240h20v-160h20v-20h40v-20h60v-40zm-40 260h20v40h-20v-40zm-100 0h20v40h-20v-40zm100 180h40v20h-40v-20zm-100 0h20v20h-20v-20z"/><path fill="#DFA8A8" d="M540 3160v320h20v-20h40v-20h20v20h40v20h20v-320h-20v-20H560v20"/><path fill="#F5C3C3" d="M640 3179h20v281h-20v-281zm-80 0h20v281h-20v-281z"/><path fill="#FFE8E8" fill-opacity=".3" d="M540 3200h140v20H540v-20zm0 60h140v20H540v-20zm0 60h140v20H540v-20zm0 60h140v20H540v-20zm0 60h60v20h-60v-20zm80 0h60v20h-60v-20z"/><path fill="#B47878" d="M600 3200v-20h-40v-20h20v40h60v-40h20v20h-40v260h-20"/><path fill="#FFF" fill-opacity=".2" d="M780 3240h20v40h-20zm-20-20h20v20h-20zm0 60h20v20h-20z"/><path fill="#F7CC96" d="M618 3018h62v84h-62z"/><path fill="#C68A74" d="M580 3119v41h20v40h20v-40h20v-21h-39v-20"/><path fill="#E2B79C" d="M598 3018h42v24h-42v-24zm60-18h22v20h-22v-20zm-18 58h20v22h-20v-22zm-42 2h22v42h-22v-42z"/><path fill="#472A1E" d="M600 3100h80v40h-80v-20h-20v-42h20v22m0-100v-20h80v20h-20v20h-62v-20"/><path fill="#5D4439" d="M580 3000h20v42h-20z"/><path fill="#212121" d="M580 3040h42v20h-42zm58 0h24v20h-24z"/><path fill="#FFF" d="M660 3040h20v20h-20zm-40 0h20v20h-20z"/><path fill="#C68A74" d="M580 3060h20v20h-20z"/><path fill="#DFA8A8" d="M500 3220h21v60h-1v240h-20"/><path fill="#F7CC96" d="M520 3520h-20v20h20z"/><path fill="#B47878" d="M520 3500h-20v20h20z"/><path fill="#F5C3C3" d="M541 3180h-21v100h21z"/><path fill="#FFE8E8" fill-opacity=".3" d="M540 3200h-20v20h20v-20zm0 60h-40v20h40v-20zm-20 60h-20v20h20v-20zm0 60h-20v20h20v-20zm0 60h-20v20h20v-20z"/><path fill="#DFA8A8" d="M700 3220h20v140h20v40h-20v-20h-20"/><path fill="#F5C3C3" d="M679 3180h21v100h-21z"/><path fill="#FFE8E8" fill-opacity=".3" d="M680 3200h20v20h-20v-20zm0 60h40v20h-40v-20zm20 60h20v20h-20v-20zm20 60h20v20h-20v-20z"/><path fill="#F3F3F3" d="M740 3340h60v60h-60z"/><path fill="#303945" fill-opacity=".8" d="M880 3880h240v20H880z"/><path fill="#472A1E" d="M1040 3879h40v21h-40zm-120 1h20v-1h20v21h-40"/><path fill="#57629D" d="M1040 3861h20v-181h20v-221H941v201h-1v201h20v-181h20v-180h61v160h-1"/><path fill="#495491" d="M1040 3500h20v160h-20v-160zm40-80H940v240h20v-160h20v-20h40v-20h60v-40zm-40 260h20v40h-20v-40zm-100 0h20v40h-20v-40zm100 180h40v20h-40v-20zm-100 0h20v20h-20v-20z"/><path fill="#DFA8A8" d="M940 3160v320h20v-20h40v-20h20v20h40v20h20v-320h-20v-20H960v20"/><path fill="#F5C3C3" d="M1040 3179h20v281h-20v-281zm-80 0h20v281h-20v-281z"/><path fill="#FFE8E8" fill-opacity=".3" d="M940 3200h140v20H940v-20zm0 60h140v20H940v-20zm0 60h140v20H940v-20zm0 60h140v20H940v-20zm0 60h60v20h-60v-20zm80 0h60v20h-60v-20z"/><path fill="#B47878" d="M1000 3200v-20h-40v-20h20v40h60v-40h20v20h-40v260h-20"/><path fill="#FFF" fill-opacity=".2" d="M1140 3240h20v20h-20zm20-20h20v20h-20zm0 40h20v20h-20zm0 40h20v20h-20z"/><path fill="#F7CC96" d="M1018 3018h62v84h-62z"/><path fill="#C68A74" d="M980 3119v41h20v40h20v-40h20v-21h-39v-20"/><path fill="#E2B79C" d="M998 3018h42v24h-42v-24zm60-18h22v20h-22v-20zm-18 58h20v22h-20v-22zm-42 2h22v42h-22v-42z"/><path fill="#472A1E" d="M1000 3100h80v40h-80v-20h-20v-42h20v22m0-100v-20h80v20h-20v20h-62v-20"/><path fill="#5D4439" d="M980 3000h20v42h-20z"/><path fill="#212121" d="M980 3040h42v20h-42zm58 0h24v20h-24z"/><path fill="#FFF" d="M1060 3040h20v20h-20zm-40 0h20v20h-20z"/><path fill="#C68A74" d="M980 3060h20v20h-20z"/><path fill="#DFA8A8" d="M900 3220h21v60h-1v240h-20"/><path fill="#F7CC96" d="M920 3520h-20v20h20z"/><path fill="#B47878" d="M920 3500h-20v20h20z"/><path fill="#F5C3C3" d="M941 3180h-21v100h21z"/><path fill="#FFE8E8" fill-opacity=".3" d="M940 3200h-20v20h20v-20zm0 60h-40v20h40v-20zm-20 60h-20v20h20v-20zm0 60h-20v20h20v-20zm0 60h-20v20h20v-20z"/><path fill="#DFA8A8" d="M1100 3220h20v140h20v40h-20v-20h-20"/><path fill="#F5C3C3" d="M1079 3180h21v100h-21z"/><path fill="#FFE8E8" fill-opacity=".3" d="M1080 3200h20v20h-20v-20zm0 60h40v20h-40v-20zm20 60h20v20h-20v-20zm20 60h20v20h-20v-20z"/><path fill="#F3F3F3" d="M1140 3340h60v60h-60z"/><path fill="#303945" fill-opacity=".8" d="M1280 3880h240v20h-240z"/><path fill="#472A1E" d="M1440 3879h40v21h-40zm-120 1h20v-1h20v21h-40"/><path fill="#57629D" d="M1440 3861h20v-181h20v-221h-139v201h-1v201h20v-181h20v-180h61v160h-1"/><path fill="#495491" d="M1440 3500h20v160h-20v-160zm40-80h-140v240h20v-160h20v-20h40v-20h60v-40zm-40 260h20v40h-20v-40zm-100 0h20v40h-20v-40zm100 180h40v20h-40v-20zm-100 0h20v20h-20v-20z"/><path fill="#DFA8A8" d="M1340 3160v320h20v-20h40v-20h20v20h40v20h20v-320h-20v-20h-100v20"/><path fill="#F5C3C3" d="M1440 3179h20v281h-20v-281zm-80 0h20v281h-20v-281z"/><path fill="#FFE8E8" fill-opacity=".3" d="M1340 3200h140v20h-140v-20zm0 60h140v20h-140v-20zm0 60h140v20h-140v-20zm0 60h140v20h-140v-20zm0 60h60v20h-60v-20zm80 0h60v20h-60v-20z"/><path fill="#B47878" d="M1400 3200v-20h-40v-20h20v40h60v-40h20v20h-40v260h-20"/><path fill="#F7CC96" d="M1418 3018h62v84h-62z"/><path fill="#C68A74" d="M1380 3119v41h20v40h20v-40h20v-21h-39v-20"/><path fill="#E2B79C" d="M1398 3018h42v24h-42v-24zm60-18h22v20h-22v-20zm-18 58h20v22h-20v-22zm-42 2h22v42h-22v-42z"/><path fill="#472A1E" d="M1400 3100h80v40h-80v-20h-20v-42h20v22m0-100v-20h80v20h-20v20h-62v-20"/><path fill="#5D4439" d="M1380 3000h20v42h-20z"/><path fill="#212121" d="M1380 3040h42v20h-42zm58 0h24v20h-24z"/><path fill="#FFF" d="M1460 3040h20v20h-20zm-40 0h20v20h-20z"/><path fill="#C68A74" d="M1380 3060h20v20h-20z"/><path fill="#DFA8A8" d="M1300 3220h21v60h-1v240h-20"/><path fill="#F7CC96" d="M1320 3520h-20v20h20z"/><path fill="#B47878" d="M1320 3500h-20v20h20z"/><path fill="#F5C3C3" d="M1341 3180h-21v100h21z"/><path fill="#FFE8E8" fill-opacity=".3" d="M1340 3200h-20v20h20v-20zm0 60h-40v20h40v-20zm-20 60h-20v20h20v-20zm0 60h-20v20h20v-20zm0 60h-20v20h20v-20z"/><path fill="#DFA8A8" d="M1500 3220h20v80h20v40h-20v20h-20"/><path fill="#F5C3C3" d="M1479 3180h21v100h-21z"/><path fill="#FFE8E8" fill-opacity=".3" d="M1480 3200h20v20h-20v-20zm0 60h40v20h-40v-20zm20 60h40v20h-40v-20z"/><path fill="#F3F3F3" d="M1540 3260h60v60h-60z"/><path fill="#303945" fill-opacity=".8" d="M1680 3880h240v20h-240z"/><path fill="#472A1E" d="M1840 3879h40v21h-40zm-120 1h20v-1h20v21h-40"/><path fill="#57629D" d="M1840 3861h20v-181h20v-221h-139v201h-1v201h20v-181h20v-180h61v160h-1"/><path fill="#495491" d="M1840 3500h20v160h-20v-160zm40-80h-140v240h20v-160h20v-20h40v-20h60v-40zm-40 260h20v40h-20v-40zm-100 0h20v40h-20v-40zm100 180h40v20h-40v-20zm-100 0h20v20h-20v-20z"/><path fill="#DFA8A8" d="M1740 3160v320h20v-20h40v-20h20v20h40v20h20v-320h-20v-20h-100v20"/><path fill="#F5C3C3" d="M1840 3179h20v281h-20v-281zm-80 0h20v281h-20v-281z"/><path fill="#FFE8E8" fill-opacity=".3" d="M1740 3200h140v20h-140v-20zm0 60h140v20h-140v-20zm0 60h140v20h-140v-20zm0 60h140v20h-140v-20zm0 60h60v20h-60v-20zm80 0h60v20h-60v-20z"/><path fill="#B47878" d="M1800 3200v-20h-40v-20h20v40h60v-40h20v20h-40v260h-20"/><path fill="#F7CC96" d="M1818 3038l82 1v41l-25 2v40h-57"/><path fill="#C68A74" d="M1800 3160v40h20v-40h1v-21h-20v-20h-21v41"/><path fill="#E2B79C" d="M1818 3038h62v22h-62v-22zm42 62h20v20h-20v-20zm-61-21h21v22h-21v-22z"/><path fill="#472A1E" d="M1800 3100h20v20h60v40h-60v-20h-20v-20h-20v-42h20v22m20-100h80v40h-61v-19h-19"/><path fill="#5D4439" d="M1820 3040v20h-20v-40h40v20h-20"/><path fill="#212121" d="M1800 3060h40v20h-40zm58 20h24v20h-24z"/><path fill="#FFF" d="M1880 3080h20v20h-20zm-40 0h20v20h-20z"/><path fill="#C68A74" d="M1780 3060h20v20h-20z"/><path fill="#DFA8A8" d="M1700 3220h21v60h-1v240h-20"/><path fill="#F7CC96" d="M1720 3520h-20v20h20z"/><path fill="#B47878" d="M1720 3500h-20v20h20z"/><path fill="#F5C3C3" d="M1741 3180h-21v100h21z"/><path fill="#FFE8E8" fill-opacity=".3" d="M1740 3200h-20v20h20v-20zm0 60h-40v20h40v-20zm-20 60h-20v20h20v-20zm0 60h-20v20h20v-20zm0 60h-20v20h20v-20z"/><path fill="#DFA8A8" d="M1900 3220h20v120h-20m20 0h20v20h-20m20-160h20v140h-20"/><path fill="#F5C3C3" d="M1879 3180h21v100h-21z"/><path fill="#FFE8E8" fill-opacity=".3" d="M1880 3200h20v20h-20v-20zm0 60h40v20h-40v-20zm20 60h20v20h-20v-20zm40 0h20v20h-20v-20zm0-60h20v20h-20v-20zm0-60h20v20h-20v-20z"/><path fill="#F3F3F3" d="M1900 3140h60v60h-60z"/><path fill="#303945" fill-opacity=".8" d="M2080 3880h240v20h-240z"/><path fill="#472A1E" d="M2240 3879h40v21h-40zm-120 1h20v-1h20v21h-40"/><path fill="#57629D" d="M2240 3861h20v-181h20v-221h-139v201h-1v201h20v-181h20v-180h61v160h-1"/><path fill="#495491" d="M2240 3500h20v160h-20v-160zm40-80h-140v240h20v-160h20v-20h40v-20h60v-40zm-40 260h20v40h-20v-40zm-100 0h20v40h-20v-40zm100 180h40v20h-40v-20zm-100 0h20v20h-20v-20z"/><path fill="#DFA8A8" d="M2140 3160v320h20v-20h40v-20h20v20h40v20h20v-320h-20v-20h-100v20"/><path fill="#F5C3C3" d="M2240 3179h20v281h-20v-281zm-80 0h20v281h-20v-281z"/><path fill="#FFE8E8" fill-opacity=".3" d="M2140 3200h140v20h-140v-20zm0 60h140v20h-140v-20zm0 60h140v20h-140v-20zm0 60h140v20h-140v-20zm0 60h60v20h-60v-20zm80 0h60v20h-60v-20z"/><path fill="#B47878" d="M2200 3200v-20h-40v-20h20v40h60v-40h20v20h-40v260h-20"/><path fill="#F7CC96" d="M2218 3038l82 1v41l-25 2v40h-57"/><path fill="#C68A74" d="M2200 3160v40h20v-40h1v-21h-20v-20h-21v41"/><path fill="#E2B79C" d="M2218 3038h62v22h-62v-22zm42 62h20v20h-20v-20zm-61-21h21v22h-21v-22z"/><path fill="#472A1E" d="M2200 3100h20v20h60v40h-60v-20h-20v-20h-20v-42h20v22m20-100h80v40h-61v-19h-19"/><path fill="#5D4439" d="M2220 3040v20h-20v-40h40v20h-20"/><path fill="#212121" d="M2200 3060h40v20h-40zm58 20h24v20h-24z"/><path fill="#FFF" d="M2280 3080h20v20h-20zm-40 0h20v20h-20z"/><path fill="#C68A74" d="M2180 3060h20v20h-20z"/><path fill="#DFA8A8" d="M2100 3220h21v60h-1v240h-20"/><path fill="#F7CC96" d="M2120 3520h-20v20h20z"/><path fill="#B47878" d="M2120 3500h-20v20h20z"/><path fill="#F5C3C3" d="M2141 3180h-21v100h21z"/><path fill="#FFE8E8" fill-opacity=".3" d="M2140 3200h-20v20h20v-20zm0 60h-40v20h40v-20zm-20 60h-20v20h20v-20zm0 60h-20v20h20v-20zm0 60h-20v20h20v-20z"/><path fill="#DFA8A8" d="M2300 3220h20v80h-20m20 0h20v40h-20m20-180h20v140h-20"/><path fill="#B47878" d="M2340 3160h20v20h-20"/><path fill="#F5C3C3" d="M2279 3180h21v100h-21z"/><path fill="#FFE8E8" fill-opacity=".3" d="M2280 3200h20v20h-20v-20zm0 60h40v20h-40v-20zm40 60h20v20h-20v-20zm20-60h20v20h-20v-20zm0-60h20v20h-20v-20z"/><path fill="#F3F3F3" d="M2260 3120h60v40h-60z"/><path fill="#F3F3F3" d="M2280 3100h40v60h-40z"/><path fill="#F3F3F3" d="M2300 3120h40v40h-40z"/><path fill="#F3F3F3" d="M2279 3140h40v40h-40z"/><path fill="#303945" fill-opacity=".8" d="M2480 3880h240v20h-240z"/><path fill="#472A1E" d="M2640 3879h40v21h-40zm-120 1h20v-1h20v21h-40"/><path fill="#57629D" d="M2640 3861h20v-181h20v-221h-139v201h-1v201h20v-181h20v-180h61v160h-1"/><path fill="#495491" d="M2640 3500h20v160h-20v-160zm40-80h-140v240h20v-160h20v-20h40v-20h60v-40zm-40 260h20v40h-20v-40zm-100 0h20v40h-20v-40zm100 180h40v20h-40v-20zm-100 0h20v20h-20v-20z"/><path fill="#DFA8A8" d="M2540 3160v320h20v-20h40v-20h20v20h40v20h20v-320h-20v-20h-100v20"/><path fill="#F5C3C3" d="M2640 3179h20v281h-20v-281zm-80 0h20v281h-20v-281z"/><path fill="#FFE8E8" fill-opacity=".3" d="M2540 3200h140v20h-140v-20zm0 60h140v20h-140v-20zm0 60h140v20h-140v-20zm0 60h140v20h-140v-20zm0 60h60v20h-60v-20zm80 0h60v20h-60v-20z"/><path fill="#B47878" d="M2600 3200v-20h-40v-20h20v40h60v-40h20v20h-40v260h-20"/><path fill="#F7CC96" d="M2618 3038l82 1v41l-25 2v40h-57"/><path fill="#C68A74" d="M2600 3160v40h20v-40h1v-21h-20v-20h-21v41"/><path fill="#E2B79C" d="M2618 3038h62v22h-62v-22zm42 62h20v20h-20v-20zm-61-21h21v22h-21v-22z"/><path fill="#472A1E" d="M2600 3100h20v20h60v40h-60v-20h-20v-20h-20v-42h20v22m20-100h80v40h-61v-19h-19"/><path fill="#5D4439" d="M2620 3040v20h-20v-40h40v20h-20"/><path fill="#212121" d="M2600 3060h40v20h-40zm58 20h24v20h-24z"/><path fill="#FFF" d="M2680 3080h20v20h-20zm-40 0h20v20h-20z"/><path fill="#C68A74" d="M2580 3060h20v20h-20z"/><path fill="#DFA8A8" d="M2500 3220h21v60h-1v240h-20"/><path fill="#F7CC96" d="M2520 3520h-20v20h20z"/><path fill="#B47878" d="M2520 3500h-20v20h20z"/><path fill="#F5C3C3" d="M2541 3180h-21v100h21z"/><path fill="#FFE8E8" fill-opacity=".3" d="M2540 3200h-20v20h20v-20zm0 60h-40v20h40v-20zm-20 60h-20v20h20v-20zm0 60h-20v20h20v-20zm0 60h-20v20h20v-20z"/><path fill="#DFA8A8" d="M2700 3220h20v80h-20m20-20h20v60h-20m20-200h20v140h-20"/><path fill="#B47878" d="M2740 3140h20v20h-20"/><path fill="#F5C3C3" d="M2679 3180h21v100h-21z"/><path fill="#FFE8E8" fill-opacity=".3" d="M2680 3200h20v20h-20v-20zm0 60h40v20h-40v-20zm40 60h20v20h-20v-20zm20-60h20v20h-20v-20zm0-60h20v20h-20v-20z"/><path fill="#F3F3F3" d="M2660 3120h60v40h-60z"/><path fill="#F3F3F3" d="M2680 3100h40v60h-40z"/><path fill="#F3F3F3" d="M2700 3120h40v40h-40z"/><path fill="#F3F3F3" d="M2679 3140h40v40h-40z"/><path fill="#303945" fill-opacity=".8" d="M2880 3880h240v20h-240z"/><path fill="#472A1E" d="M3040 3879h40v21h-40zm-120 1h20v-1h20v21h-40"/><path fill="#57629D" d="M3040 3861h20v-181h20v-221h-139v201h-1v201h20v-181h20v-180h61v160h-1"/><path fill="#495491" d="M3040 3500h20v160h-20v-160zm40-80h-140v240h20v-160h20v-20h40v-20h60v-40zm-40 260h20v40h-20v-40zm-100 0h20v40h-20v-40zm100 180h40v20h-40v-20zm-100 0h20v20h-20v-20z"/><path fill="#DFA8A8" d="M2940 3160v320h20v-20h40v-20h20v20h40v20h20v-320h-20v-20h-100v20"/><path fill="#F5C3C3" d="M3040 3179h20v281h-20v-281zm-80 0h20v281h-20v-281z"/><path fill="#FFE8E8" fill-opacity=".3" d="M2940 3200h140v20h-140v-20zm0 60h140v20h-140v-20zm0 60h140v20h-140v-20zm0 60h140v20h-140v-20zm0 60h60v20h-60v-20zm80 0h60v20h-60v-20z"/><path fill="#B47878" d="M3000 3200v-20h-40v-20h20v40h60v-40h20v20h-40v260h-20"/><path fill="#F7CC96" d="M3018 3038l82 1v41l-25 2v40h-57"/><path fill="#C68A74" d="M3000 3160v40h20v-40h1v-21h-20v-20h-21v41"/><path fill="#E2B79C" d="M3018 3038h62v22h-62v-22zm42 62h20v20h-20v-20zm-61-21h21v22h-21v-22z"/><path fill="#472A1E" d="M3000 3100h20v20h60v40h-60v-20h-20v-20h-20v-42h20v22m20-100h80v40h-61v-19h-19"/><path fill="#5D4439" d="M3020 3040v20h-20v-40h40v20h-20"/><path fill="#212121" d="M3000 3060h40v20h-40zm58 20h24v20h-24z"/><path fill="#FFF" d="M3080 3080h20v20h-20zm-40 0h20v20h-20z"/><path fill="#C68A74" d="M2980 3060h20v20h-20z"/><path fill="#DFA8A8" d="M2900 3220h21v60h-1v240h-20"/><path fill="#F7CC96" d="M2920 3520h-20v20h20z"/><path fill="#B47878" d="M2920 3500h-20v20h20z"/><path fill="#F5C3C3" d="M2941 3180h-21v100h21z"/><path fill="#FFE8E8" fill-opacity=".3" d="M2940 3200h-20v20h20v-20zm0 60h-40v20h40v-20zm-20 60h-20v20h20v-20zm0 60h-20v20h20v-20zm0 60h-20v20h20v-20z"/><path fill="#DFA8A8" d="M3100 3220h20v120h-20m20 0h20v20h-20m20-160h20v140h-20"/><path fill="#F5C3C3" d="M3079 3180h21v100h-21z"/><path fill="#FFE8E8" fill-opacity=".3" d="M3080 3200h20v20h-20v-20zm0 60h40v20h-40v-20zm20 60h20v20h-20v-20zm40 0h20v20h-20v-20zm0-60h20v20h-20v-20zm0-60h20v20h-20v-20z"/><path fill="#F3F3F3" d="M3100 3140h60v60h-60z"/><path fill="#303945" fill-opacity=".8" d="M3280 3880h240v20h-240z"/><path fill="#472A1E" d="M3440 3879h40v21h-40zm-120 1h20v-1h20v21h-40"/><path fill="#57629D" d="M3440 3861h20v-181h20v-221h-139v201h-1v201h20v-181h20v-180h61v160h-1"/><path fill="#495491" d="M3440 3500h20v160h-20v-160zm40-80h-140v240h20v-160h20v-20h40v-20h60v-40zm-40 260h20v40h-20v-40zm-100 0h20v40h-20v-40zm100 180h40v20h-40v-20zm-100 0h20v20h-20v-20z"/><path fill="#DFA8A8" d="M3340 3160v320h20v-20h40v-20h20v20h40v20h20v-320h-20v-20h-100v20"/><path fill="#F5C3C3" d="M3440 3179h20v281h-20v-281zm-80 0h20v281h-20v-281z"/><path fill="#FFE8E8" fill-opacity=".3" d="M3340 3200h140v20h-140v-20zm0 60h140v20h-140v-20zm0 60h140v20h-140v-20zm0 60h140v20h-140v-20zm0 60h60v20h-60v-20zm80 0h60v20h-60v-20z"/><path fill="#B47878" d="M3400 3200v-20h-40v-20h20v40h60v-40h20v20h-40v260h-20"/><path fill="#F7CC96" d="M3418 3018h62v84h-62z"/><path fill="#C68A74" d="M3380 3119v41h20v40h20v-40h20v-21h-39v-20"/><path fill="#E2B79C" d="M3398 3018h42v24h-42v-24zm60-18h22v20h-22v-20zm-18 58h20v22h-20v-22zm-42 2h22v42h-22v-42z"/><path fill="#472A1E" d="M3400 3100h80v40h-80v-20h-20v-42h20v22m0-100v-20h80v20h-20v20h-62v-20"/><path fill="#5D4439" d="M3380 3000h20v42h-20z"/><path fill="#212121" d="M3380 3040h42v20h-42zm58 0h24v20h-24z"/><path fill="#FFF" d="M3460 3040h20v20h-20zm-40 0h20v20h-20z"/><path fill="#C68A74" d="M3380 3060h20v20h-20z"/><path fill="#DFA8A8" d="M3300 3220h21v60h-1v240h-20"/><path fill="#F7CC96" d="M3320 3520h-20v20h20z"/><path fill="#B47878" d="M3320 3500h-20v20h20z"/><path fill="#F5C3C3" d="M3341 3180h-21v100h21z"/><path fill="#FFE8E8" fill-opacity=".3" d="M3340 3200h-20v20h20v-20zm0 60h-40v20h40v-20zm-20 60h-20v20h20v-20zm0 60h-20v20h20v-20zm0 60h-20v20h20v-20z"/><path fill="#DFA8A8" d="M3500 3220h20v80h20v40h-20v20h-20"/><path fill="#F5C3C3" d="M3479 3180h21v100h-21z"/><path fill="#FFE8E8" fill-opacity=".3" d="M3480 3200h20v20h-20v-20zm0 60h40v20h-40v-20zm20 60h40v20h-40v-20z"/><path fill="#F3F3F3" d="M3540 3260h60v60h-60z"/></g></svg>