<svg style="display: none;"><symbol id="footer-link--instagram" viewBox="0 0 154 154"><path d="M77 2c-20.4 0-23 0-31 .5C38 2.8 32.7 4 28 6c-5 2-9.2 4.4-13.4 8.6C10.4 18.8 8 23 6 28c-2 4.6-3.2 10-3.5 18C2 54 2 56.7 2 77s0 23 .5 31c.3 8 1.6 13.4 3.4 18 2 5 4.4 9.2 8.6 13.4 4.2 4.2 8.3 6.7 13.3 8.7 4.6 2 10 3.2 18 3.5 8 .4 10.6.5 31 .5s23 0 31-.5c8-.3 13.4-1.6 18-3.4 5-2 9.2-4.4 13.4-8.6 4.2-4.2 6.7-8.3 8.7-13.3 2-4.6 3.2-10 3.5-18 .4-8 .5-10.6.5-31s0-23-.5-31c-.3-8-1.6-13.4-3.4-18-2-5-4.4-9.2-8.6-13.4C135.2 10.4 131 8 126 6c-4.6-2-10-3.2-18-3.5C100 2 97.3 2 77 2zm0 13.5c20 0 22.4 0 30.3.5 7.3.3 11.3 1.5 14 2.5 3.4 1.4 6 3 8.6 5.6 2.5 2.8 4 5.3 5.5 8.8 1 2.6 2.2 6.6 2.5 14 .4 7.8.5 10.2.5 30.2s0 22.4-.5 30.3c-.3 7.3-1.5 11.3-2.5 14-1.4 3.4-3 6-5.6 8.6-2.8 2.5-5.3 4-8.8 5.5-2.6 1-6.6 2.2-14 2.5-7.8.4-10.2.5-30.2.5s-22.4 0-30.3-.5c-7.3-.3-11.3-1.5-14-2.5-3.4-1.4-6-3-8.6-5.6-2.5-2.8-4-5.3-5.5-8.8-1-2.6-2.2-6.6-2.5-14-.4-7.8-.5-10.2-.5-30.2s0-22.4.5-30.3c.3-7.3 1.5-11.3 2.5-14 1.4-3.4 3-6 5.6-8.6 2.8-2.5 5.3-4 8.8-5.5 2.6-1 6.6-2.2 14-2.5 7.8-.4 10.2-.5 30.2-.5zm0 23c-21.3 0-38.5 17.2-38.5 38.5s17.2 38.5 38.5 38.5 38.5-17.2 38.5-38.5S98.3 38.5 77 38.5zm0 63.5c-13.8 0-25-11.2-25-25s11.2-25 25-25 25 11.2 25 25-11.2 25-25 25zm49-65c0 5-4 9-9 9s-9-4-9-9 4-9 9-9 9 4 9 9z"/></symbol><symbol id="footer-link--linkedin" viewBox="0 0 154 154"><path d="M141 2H13C7 2 2 6.8 2 12.8v128.4c0 6 5 10.8 11 10.8h128c6 0 11-4.8 11-10.8V12.8c0-6-5-10.8-11-10.8zM35 22.8c7 0 13 5.8 13 13 0 7-6 12.8-13 12.8s-13-5.7-13-13c0-7 6-12.8 13-12.8zM24 58.4H46V130H24V58.4zm36.3-.4h21.4v9.7h.3c3-5.6 10.2-11.5 21-11.5 22.5 0 26.7 14.8 26.7 34v39.3h-22.2V94.7c0-8.3-.2-19-11.6-19-11.7 0-13.4 9-13.4 18.4v35.5H60.3V58z"/></symbol><symbol id="footer-link--twitter" viewBox="0 0 154 154"><path d="M105.8 16C88.8 16 75 29.8 75 46.8c0 2.4.3 4.7 1 7-25.7-1.3-48.4-13.5-63.6-32.2-2.6 4.6-4 10-4 15.5C8.3 48 13.6 57.3 22 62.8c-5 0-9.8-1.5-14-3.8v.3c0 15 10.6 27.3 24.7 30-2.6.8-5.3 1.2-8 1.2-2 0-4-.2-6-.5 4 12.2 15.4 21 29 21.3-10.7 8.3-24 13.2-38.4 13.2-2.4 0-5 0-7.3-.4 13.6 8.8 29.8 14 47.2 14 56.6 0 87.5-47 87.5-87.7v-4c6-4.3 11.2-9.7 15.3-16-5.5 2.6-11.5 4.2-17.7 5 6.4-3.8 11.3-10 13.6-17-6 3.5-12.7 6-19.7 7.4-5.6-6-13.6-9.7-22.5-9.7"/></symbol><symbol id="footer-link--github" viewBox="0 0 154 154"><path d="M77 2C35.6 2 2 35.8 2 77.4 2 110.7 23.5 139 53.3 149c3.7.6 5-1.7 5-3.7v-12.8c-21 4.5-25.3-10-25.3-10-3.4-8.8-8.3-11.2-8.3-11.2-6.8-4.6.5-4.5.5-4.5 7.6.5 11.5 7.7 11.5 7.7 6.7 11.5 17.6 8.2 22 6.3.5-5 2.5-8.2 4.6-10-16.6-2-34-8.5-34-37.3 0-8.3 2.8-15 7.6-20.3-1-2-3.5-9.6.6-20 0 0 6.3-2 20.6 7.8 6-1.7 12.4-2.5 18.8-2.5s12.8.8 18.8 2.5c14.3-9.8 20.6-7.7 20.6-7.7 4 10.3 1.5 18 .7 20 5 5.2 7.8 12 7.8 20.2 0 29-17.5 35.3-34.2 37.2 2.7 2.3 5 7 5 14v20.6c0 2 1.3 4.4 5.2 3.6 29.7-10 51.2-38.3 51.2-71.6C152 35.8 118.4 2 77 2"/></symbol></svg>
